<?xml version="1.0" encoding="UTF-8" standalone="no"?><!DOCTYPE svg PUBLIC "-//W3C//DTD SVG 1.1//EN"
  "http://www.w3.org/Graphics/SVG/1.1/DTD/svg11.dtd">
<svg width="100%" height="100%" viewBox="0 0 534 534" version="1.1" xmlns="http://www.w3.org/2000/svg" xmlns:xlink="http://www.w3.org/1999/xlink"
  xml:space="preserve" xmlns:serif="http://www.serif.com/"
  style="fill-rule:evenodd;clip-rule:evenodd;stroke-linecap:round;stroke-linejoin:round;stroke-miterlimit:1;"><rect id="asset-light" x="0" y="-0" width="533.333" height="533.333" style="fill:none;"/>
  <g><path d="M326.563,27.083l-0,152.462l152.462,0l-0,326.705l-424.716,0l-0,-479.167l272.254,0Z" style="fill:#fff;stroke:#1e4847;stroke-width:20.83px;"/>
    <path
      d="M138.707,84.336l0,16.177c0,3.049 -2.475,5.524 -5.524,5.524l-16.177,-0c-3.049,-0 -5.524,-2.475 -5.524,-5.524l0,-16.177c0,-3.049 2.475,-5.524 5.524,-5.524l16.177,-0c3.049,-0 5.524,2.475 5.524,5.524Z"
      style="fill:#1e4847;"/>
    <path
      d="M138.707,138.786l0,16.178c0,3.048 -2.475,5.524 -5.524,5.524l-16.177,-0c-3.049,-0 -5.524,-2.476 -5.524,-5.524l0,-16.178c0,-3.048 2.475,-5.524 5.524,-5.524l16.177,0c3.049,0 5.524,2.476 5.524,5.524Z"
      style="fill:#1e4847;"/>
    <path
      d="M138.707,193.237l0,16.177c0,3.049 -2.475,5.524 -5.524,5.524l-16.177,0c-3.049,0 -5.524,-2.475 -5.524,-5.524l0,-16.177c0,-3.049 2.475,-5.524 5.524,-5.524l16.177,0c3.049,0 5.524,2.475 5.524,5.524Z"
      style="fill:#1e4847;"/>
    <path
      d="M138.707,247.688l0,16.177c0,3.049 -2.475,5.524 -5.524,5.524l-16.177,0c-3.049,0 -5.524,-2.475 -5.524,-5.524l0,-16.177c0,-3.049 2.475,-5.524 5.524,-5.524l16.177,-0c3.049,-0 5.524,2.475 5.524,5.524Z"
      style="fill:#1e4847;"/>
    <path
      d="M138.707,302.139l0,16.177c0,3.049 -2.475,5.524 -5.524,5.524l-16.177,-0c-3.049,-0 -5.524,-2.475 -5.524,-5.524l0,-16.177c0,-3.049 2.475,-5.524 5.524,-5.524l16.177,-0c3.049,-0 5.524,2.475 5.524,5.524Z"
      style="fill:#1e4847;"/>
    <path
      d="M165.933,111.561l-0,16.177c-0,3.049 -2.475,5.524 -5.524,5.524l-16.178,0c-3.048,0 -5.524,-2.475 -5.524,-5.524l0,-16.177c0,-3.049 2.476,-5.524 5.524,-5.524l16.178,-0c3.049,-0 5.524,2.475 5.524,5.524Z"
      style="fill:#1e4847;"/>
    <path
      d="M165.933,166.012l-0,16.177c-0,3.049 -2.475,5.524 -5.524,5.524l-16.178,0c-3.048,0 -5.524,-2.475 -5.524,-5.524l0,-16.177c0,-3.049 2.476,-5.524 5.524,-5.524l16.178,-0c3.049,-0 5.524,2.475 5.524,5.524Z"
      style="fill:#1e4847;"/>
    <path
      d="M165.933,220.462l-0,16.178c-0,3.049 -2.475,5.524 -5.524,5.524l-16.178,-0c-3.048,-0 -5.524,-2.475 -5.524,-5.524l0,-16.178c0,-3.048 2.476,-5.524 5.524,-5.524l16.178,0c3.049,0 5.524,2.476 5.524,5.524Z"
      style="fill:#1e4847;"/>
    <path
      d="M165.933,274.913l-0,16.178c-0,3.048 -2.475,5.524 -5.524,5.524l-16.178,-0c-3.048,-0 -5.524,-2.476 -5.524,-5.524l0,-16.178c0,-3.049 2.476,-5.524 5.524,-5.524l16.178,0c3.049,0 5.524,2.475 5.524,5.524Z"
      style="fill:#1e4847;"/>
    <path
      d="M165.933,348.501l-0,32.354c-0,6.098 -4.951,11.048 -11.048,11.048l-32.355,0c-6.098,0 -11.048,-4.95 -11.048,-11.048l0,-32.354c0,-6.098 4.95,-11.048 11.048,-11.048l32.355,-0c6.097,-0 11.048,4.95 11.048,11.048Z"
      style="fill:none;stroke:#1e4847;stroke-width:12.5px;"/>
    <path d="M326.563,27.083l152.462,152.462l-152.462,0l-0,-152.462Z" style="fill:#fff;stroke:#1e4847;stroke-width:20.83px;"/></g></svg>
