<?xml version="1.0" encoding="UTF-8" standalone="no"?><!DOCTYPE svg PUBLIC "-//W3C//DTD SVG 1.1//EN"
  "http://www.w3.org/Graphics/SVG/1.1/DTD/svg11.dtd">
<svg width="100%" height="100%" viewBox="0 0 534 534" version="1.1" xmlns="http://www.w3.org/2000/svg" xmlns:xlink="http://www.w3.org/1999/xlink"
  xml:space="preserve" xmlns:serif="http://www.serif.com/"
  style="fill-rule:evenodd;clip-rule:evenodd;stroke-linecap:round;stroke-linejoin:round;stroke-miterlimit:1;"><rect id="blueprint-light" x="0" y="-0" width="533.333" height="533.333" style="fill:none;"/>
  <path d="M454.167,516.667l-437.5,-0l-0,-440l375,-0l-0,377.5c-0,34.494 28.005,62.5 62.5,62.5Z"
    style="fill:#00a5bc;stroke:#1e4847;stroke-width:20.83px;"/>
  <g><path d="M172.109,183.333l0,-37.468l162.402,0l-0,116.001l-162.402,0l0,-36.894" style="fill:none;stroke:#eeebd3;stroke-width:20.83px;"/>
    <path d="M137.5,261.866l197.011,0l-0,109.041" style="fill:none;stroke:#eeebd3;stroke-width:20.83px;"/>
    <path d="M334.511,370.907l-69.601,0l0,76.561" style="fill:none;stroke:#eeebd3;stroke-width:20.83px;"/>
    <path d="M264.91,447.468l-185.601,-0l-0,-301.603l92.8,0" style="fill:none;stroke:#eeebd3;stroke-width:20.83px;"/>
    <path d="M264.91,370.907l0,76.561l-76.56,-0c-0,-0 -2.101,-28.452 23.039,-53.593c25.141,-25.14 53.521,-22.968 53.521,-22.968Z"
      style="fill:none;stroke:#eeebd3;stroke-width:20.83px;"/></g>
  <path
    d="M391.667,79.167c-0,-0.838 0.016,-1.671 0.049,-2.5c1.314,-33.338 28.793,-60 62.451,-60c33.657,-0 61.136,26.662 62.45,60c0.033,0.829 0.05,1.662 0.05,2.5l-0,375c-0,-34.495 -28.006,-62.5 -62.5,-62.5c-34.495,-0 -62.5,28.005 -62.5,62.5l-0,-375Z"
    style="fill:#00a5bc;stroke:#1e4847;stroke-width:20.83px;"/>
  <path
    d="M391.667,454.167c-0,-34.495 28.005,-62.5 62.5,-62.5c34.494,-0 62.5,28.005 62.5,62.5c-0,34.494 -28.006,62.5 -62.5,62.5c-34.495,-0 -62.5,-28.006 -62.5,-62.5Z"
    style="fill:#4e8fa6;stroke:#1e4847;stroke-width:20.83px;"/></svg>
