<?xml version="1.0" encoding="UTF-8" standalone="no"?>
<!DOCTYPE svg PUBLIC "-//W3C//DTD SVG 1.1//EN" "http://www.w3.org/Graphics/SVG/1.1/DTD/svg11.dtd">
<svg width="100%" height="100%" viewBox="0 0 128 128" version="1.1" xmlns="http://www.w3.org/2000/svg"
  xml:space="preserve"
  style="fill-rule:evenodd;clip-rule:evenodd;stroke-linecap:round;stroke-linejoin:round;stroke-miterlimit:1;">
    <g transform="matrix(1,0,0,1,-1000,0)">
        <g id="bulb-light" transform="matrix(0.248227,0,0,0.312796,1000.45,-0.0274995)">
            <rect x="-1.829" y="0.088" width="515.658" height="409.212" style="fill:none;"/>
          <g transform="matrix(4.20399,0,0,3.33617,-4217.05,20.8682)">
                <path
                  d="M1064,0C1085.61,0 1103.16,17.548 1103.16,39.162C1103.16,60.776 1088.71,63.955 1084.21,70.333C1077.12,80.378 1077.22,81.811 1064,81.811C1050.78,81.811 1050.53,80.378 1043.43,70.333C1038.93,63.955 1024.84,60.776 1024.84,39.162C1024.84,17.548 1042.39,0 1064,0Z"
                  style="fill:rgb(247,197,72);stroke:rgb(0,165,188);stroke-width:4.79px;"/>
            </g>
          <g transform="matrix(11.6663,0,0,9.25809,127.67,62.3529)">
                <path
                  d="M13,14L13,12.037C13,11.09 13.785,10.319 14.75,10.319C15.715,10.319 16.5,11.212 16.5,12.159C16.5,13.106 15.715,14 14.75,14L13,14ZM9,25L9,14L13,14L13,25M9,14L7.25,14C6.285,14 5.5,13.107 5.5,12.16C5.5,11.213 6.285,10.381 7.25,10.381C8.215,10.381 9,11.09 9,12.037L9,14Z"
                  style="fill:none;stroke:rgb(30,72,71);stroke-width:1.73px;stroke-linecap:butt;stroke-miterlimit:2;"/>
            </g>
          <g transform="matrix(2.94452,0,0,3.64911,-2876.96,-39.8438)">
                <path
                  d="M1086.37,94.802C1085.62,98.567 1081.89,110.831 1081.89,110.831C1081.89,114.45 1071.41,117.388 1064,117.388C1056.59,117.388 1046.11,114.45 1046.11,110.831C1046.11,110.831 1042.38,98.567 1041.63,94.802C1041.21,92.658 1034.23,88.245 1041.63,88.245C1041.63,88.245 1056.55,90.332 1064,90.332C1071.45,90.332 1086.37,88.245 1086.37,88.245C1093.77,88.245 1086.79,92.658 1086.37,94.802Z"
                  style="fill:rgb(78,143,166);stroke:rgb(30,72,71);stroke-width:5.22px;"/>
            </g>
          <g transform="matrix(4.8888,0,0,3.67651,-4980.43,-15.4222)">
                <path d="M1064,91.582C1064,91.582 1068.74,92.407 1071.11,92.407C1073.48,92.407 1078.21,91.582 1078.21,91.582"
                  style="fill:rgb(78,143,166);stroke:rgb(14,124,123);stroke-width:4.23px;"/>
            </g>
          <g transform="matrix(3.91104,0,0,2.94121,-3933.14,81.179)">
                <path d="M1064,91.582C1064,91.582 1068.74,92.407 1071.11,92.407C1073.48,92.407 1078.21,91.582 1078.21,91.582"
                  style="fill:rgb(78,143,166);stroke:rgb(14,124,123);stroke-width:5.29px;"/>
            </g>
        </g>
    </g>
</svg>
