<?xml version="1.0" encoding="UTF-8" standalone="no"?><!DOCTYPE svg PUBLIC "-//W3C//DTD SVG 1.1//EN"
  "http://www.w3.org/Graphics/SVG/1.1/DTD/svg11.dtd">
<svg width="100%" height="100%" viewBox="0 0 534 534" version="1.1" xmlns="http://www.w3.org/2000/svg"
  xml:space="preserve"
  style="fill-rule:evenodd;clip-rule:evenodd;stroke-linecap:round;stroke-linejoin:round;stroke-miterlimit:1;"><rect id="collisionbox" x="0" y="-0" width="533.333" height="533.333" style="fill:none;"/>
  <rect x="27.083" y="27.083" width="479.167" height="479.167"
    style="fill:#d62246;fill-opacity:0.2;stroke:#d62246;stroke-opacity:0.2;stroke-width:20.83px;stroke-dasharray:0,1.04,0,0,0,0;"/>
  <path
    d="M466.32,47.917c-11.499,-0 -20.834,-9.335 -20.834,-20.834c0,-11.498 9.335,-20.833 20.834,-20.833l39.93,0c11.506,-0 20.833,9.327 20.833,20.833l0,39.931c0,11.498 -9.335,20.833 -20.833,20.833c-11.498,0 -20.833,-9.335 -20.833,-20.833l-0,-19.097l-19.097,-0Zm19.097,98.958c-0,-11.498 9.335,-20.833 20.833,-20.833c11.498,-0 20.833,9.335 20.833,20.833l0,79.862c0,11.498 -9.335,20.833 -20.833,20.833c-11.498,-0 -20.833,-9.335 -20.833,-20.833l-0,-79.862Zm-0,159.722c-0,-11.498 9.335,-20.833 20.833,-20.833c11.498,-0 20.833,9.335 20.833,20.833l0,79.862c0,11.498 -9.335,20.833 -20.833,20.833c-11.498,-0 -20.833,-9.335 -20.833,-20.833l-0,-79.862Zm-0,159.723c-0,-11.499 9.335,-20.834 20.833,-20.834c11.498,0 20.833,9.335 20.833,20.834l0,39.93c0,11.506 -9.327,20.833 -20.833,20.833l-39.93,0c-11.499,0 -20.834,-9.335 -20.834,-20.833c0,-11.498 9.335,-20.833 20.834,-20.833l19.097,-0l-0,-19.097Zm-98.959,19.097c11.498,-0 20.833,9.335 20.833,20.833c0,11.498 -9.335,20.833 -20.833,20.833l-79.861,0c-11.498,0 -20.834,-9.335 -20.834,-20.833c0,-11.498 9.336,-20.833 20.834,-20.833l79.861,-0Zm-159.722,-0c11.498,-0 20.833,9.335 20.833,20.833c0,11.498 -9.335,20.833 -20.833,20.833l-79.861,0c-11.498,0 -20.834,-9.335 -20.834,-20.833c0,-11.498 9.336,-20.833 20.834,-20.833l79.861,-0Zm-159.722,-0c11.498,-0 20.833,9.335 20.833,20.833c0,11.498 -9.335,20.833 -20.833,20.833l-39.931,0c-11.506,0 -20.833,-9.327 -20.833,-20.833l-0,-39.93c-0,-11.499 9.335,-20.834 20.833,-20.834c11.499,0 20.834,9.335 20.834,20.834l-0,19.097l19.097,-0Zm-19.097,-98.959c-0,11.498 -9.335,20.833 -20.834,20.833c-11.498,0 -20.833,-9.335 -20.833,-20.833l0,-79.861c0,-11.498 9.335,-20.834 20.833,-20.834c11.499,0 20.834,9.336 20.834,20.834l-0,79.861Zm-0,-159.722c-0,11.498 -9.335,20.833 -20.834,20.833c-11.498,0 -20.833,-9.335 -20.833,-20.833l0,-79.861c0,-11.498 9.335,-20.834 20.833,-20.834c11.499,0 20.834,9.336 20.834,20.834l-0,79.861Zm-0,-159.722c-0,11.498 -9.335,20.833 -20.834,20.833c-11.498,0 -20.833,-9.335 -20.833,-20.833l0,-39.931c-0,-11.506 9.327,-20.833 20.833,-20.833l39.931,0c11.498,0 20.833,9.335 20.833,20.833c0,11.499 -9.335,20.834 -20.833,20.834l-19.097,-0l-0,19.097Zm98.958,-19.097c-11.498,-0 -20.833,-9.335 -20.833,-20.834c-0,-11.498 9.335,-20.833 20.833,-20.833l79.862,0c11.498,0 20.833,9.335 20.833,20.833c-0,11.499 -9.335,20.834 -20.833,20.834l-79.862,-0Zm159.722,-0c-11.498,-0 -20.833,-9.335 -20.833,-20.834c-0,-11.498 9.335,-20.833 20.833,-20.833l79.862,0c11.498,0 20.833,9.335 20.833,20.833c-0,11.499 -9.335,20.834 -20.833,20.834l-79.862,-0Z"
    style="fill:#d62246;"/></svg>
