<?xml version="1.0" encoding="UTF-8" standalone="no"?>
<!DOCTYPE svg PUBLIC "-//W3C//DTD SVG 1.1//EN" "http://www.w3.org/Graphics/SVG/1.1/DTD/svg11.dtd">
<svg width="100%" height="100%" viewBox="0 0 128 128" version="1.1" xmlns="http://www.w3.org/2000/svg"
  xml:space="preserve"
  style="fill-rule:evenodd;clip-rule:evenodd;stroke-linecap:round;stroke-linejoin:round;stroke-miterlimit:1;">
    <g transform="matrix(1,0,0,1,-2200,0)">
        <g id="copy-light" transform="matrix(0.248227,0,0,0.312796,2200.45,-0.0274995)">
            <rect x="-1.829" y="0.088" width="515.658" height="409.212" style="fill:none;"/>
          <g transform="matrix(4.07894,0,0,3.23693,-4954.66,47.483)">
                <path
                  d="M1307.33,42.333L1307.33,85.667C1307.33,97.625 1297.62,107.333 1285.67,107.333L1242.33,107.333C1230.38,107.333 1220.67,97.625 1220.67,85.667L1220.67,42.333C1220.67,30.375 1230.38,20.667 1242.33,20.667L1285.67,20.667C1297.62,20.667 1307.33,30.375 1307.33,42.333Z"
                  style="fill:rgb(0,165,188);stroke:rgb(30,72,71);stroke-width:4.94px;stroke-dasharray:0,0.25,0,0,0,0;"/>
            </g>
          <g transform="matrix(4.07894,0,0,3.23693,-4836.83,-46.0284)">
                <path
                  d="M1307.33,42.333L1307.33,85.667C1307.33,97.625 1297.62,107.333 1285.67,107.333L1242.33,107.333C1230.38,107.333 1220.67,97.625 1220.67,85.667L1220.67,42.333C1220.67,30.375 1230.38,20.667 1242.33,20.667L1285.67,20.667C1297.62,20.667 1307.33,30.375 1307.33,42.333Z"
                  style="fill:rgb(0,165,188);stroke:rgb(30,72,71);stroke-width:4.94px;stroke-dasharray:0,0.25,0,0,0,0;"/>
            </g>
        </g>
    </g>
</svg>
