<?xml version="1.0" encoding="UTF-8" standalone="no"?><!DOCTYPE svg PUBLIC "-//W3C//DTD SVG 1.1//EN"
  "http://www.w3.org/Graphics/SVG/1.1/DTD/svg11.dtd">
<svg width="100%" height="100%" viewBox="0 0 534 534" version="1.1" xmlns="http://www.w3.org/2000/svg"
  xml:space="preserve"
  style="fill-rule:evenodd;clip-rule:evenodd;stroke-linecap:round;stroke-linejoin:round;stroke-miterlimit:1;"><rect id="delete-light" x="0" y="-0" width="533.333" height="533.333" style="fill:none;"/>
  <path d="M193.75,98.701l0,-17.983c0,-24.569 16.336,-44.517 36.458,-44.517l72.917,0c20.122,0 36.458,19.948 36.458,44.517l0,17.983"
    style="fill:none;stroke:#4e8fa6;stroke-width:21.03px;"/>
  <path d="M421.896,140.368l-0,259.211c-0,53.841 -34.778,97.553 -77.615,97.553l-155.229,-0c-42.837,-0 -77.614,-43.712 -77.614,-97.553l-0,-259.211"
    style="fill:#4e8fa6;stroke:#1e4847;stroke-width:21.03px;"/>
  <path
    d="M475,109.118l-0,20.833c-0,5.749 -4.668,10.417 -10.417,10.417l-395.833,0c-5.749,0 -10.417,-4.668 -10.417,-10.417l0,-20.833c0,-5.749 4.668,-10.417 10.417,-10.417l395.833,0c5.749,0 10.417,4.668 10.417,10.417Z"
    style="fill:#4e8fa6;stroke:#1e4847;stroke-width:21.03px;"/>
  <path d="M193.75,188.576l0,249.8" style="fill:none;stroke:#1e4847;stroke-width:21.03px;"/>
  <path d="M339.583,188.576l0,249.8" style="fill:none;stroke:#1e4847;stroke-width:21.03px;"/>
  <path d="M266.667,188.576l-0,249.8" style="fill:none;stroke:#1e4847;stroke-width:21.03px;"/></svg>
