<?xml version="1.0" encoding="UTF-8" standalone="no"?>
<!DOCTYPE svg PUBLIC "-//W3C//DTD SVG 1.1//EN" "http://www.w3.org/Graphics/SVG/1.1/DTD/svg11.dtd">
<svg width="100%" height="100%" viewBox="0 0 128 128" version="1.1" xmlns="http://www.w3.org/2000/svg"
  xml:space="preserve"
  style="fill-rule:evenodd;clip-rule:evenodd;stroke-linecap:round;stroke-linejoin:round;stroke-miterlimit:1;">
    <g transform="matrix(1,0,0,1,-3000,0)">
        <g id="emitter-light" transform="matrix(0.248227,0,0,0.312796,3000.45,-0.0274995)">
            <rect x="-1.829" y="0.088" width="515.658" height="409.212" style="fill:none;"/>
          <g transform="matrix(2.96971,-1.36063,1.71456,2.35668,-8954.94,4210.84)">
                <circle cx="3064" cy="64" r="14.685" style="fill:rgb(214,34,70);stroke:rgb(75,29,63);stroke-width:5.93px;"/>
            </g>
          <g transform="matrix(3.68573,-1.68869,1.93203,2.65559,-11162.8,5196.89)">
                <path
                  d="M3107.78,76.696C3098.5,83.169 3082.35,87.458 3064,87.458C3035.27,87.458 3011.94,76.947 3011.94,64C3011.94,51.053 3035.27,40.542 3064,40.542C3082.35,40.542 3098.5,44.831 3107.78,51.304"
                  style="fill:none;stroke:rgb(30,72,71);stroke-width:5px;"/>
            </g>
          <g transform="matrix(8.88178e-16,-3.37738,3.86405,4.44089e-16,6.67668,10541)">
                <path
                  d="M3019.87,51.553C3029.08,44.941 3045.41,40.542 3064,40.542C3092.73,40.542 3116.06,51.053 3116.06,64C3116.06,76.947 3092.73,87.458 3064,87.458C3045.88,87.458 3029.9,83.276 3020.58,76.938"
                  style="fill:none;stroke:rgb(30,72,71);stroke-width:5px;"/>
            </g>
          <g transform="matrix(-3.68573,-1.68869,-1.93203,2.65559,11670.7,5196.89)">
                <path
                  d="M3107.77,51.302C3098.5,44.83 3082.35,40.542 3064,40.542C3035.27,40.542 3011.94,51.053 3011.94,64C3011.94,76.947 3035.27,87.458 3064,87.458C3082.35,87.458 3098.5,83.17 3107.77,76.698"
                  style="fill:none;stroke:rgb(30,72,71);stroke-width:5px;"/>
            </g>
          <g transform="matrix(3.66754,-1.68035,2.11746,2.91046,-10725.3,4974.71)">
                <circle cx="3009" cy="64" r="7.135" style="fill:rgb(81,150,58);stroke:rgb(30,72,71);stroke-width:4.8px;"/>
            </g>
          <g transform="matrix(3.66754,-1.68035,2.11746,2.91046,-11109.1,4974.71)">
                <circle cx="3009" cy="64" r="7.135" style="fill:rgb(247,197,72);stroke:rgb(30,72,71);stroke-width:4.8px;"/>
            </g>
          <g transform="matrix(3.66754,-1.68035,2.11746,2.91046,-10915.1,5238.46)">
                <circle cx="3009" cy="64" r="7.135" style="fill:rgb(0,165,188);stroke:rgb(30,72,71);stroke-width:4.8px;"/>
            </g>
        </g>
    </g>
</svg>
