<?xml version="1.0" encoding="UTF-8" standalone="no"?>
<!DOCTYPE svg PUBLIC "-//W3C//DTD SVG 1.1//EN" "http://www.w3.org/Graphics/SVG/1.1/DTD/svg11.dtd">
<svg width="100%" height="100%" viewBox="0 0 128 128" version="1.1" xmlns="http://www.w3.org/2000/svg"
  xml:space="preserve"
  style="fill-rule:evenodd;clip-rule:evenodd;stroke-linecap:round;stroke-linejoin:round;stroke-miterlimit:1;">
    <g transform="matrix(1,0,0,1,-3200,0)">
        <g id="entity-light" transform="matrix(0.248227,0,0,0.312796,3200.45,-0.0274995)">
            <rect x="-1.829" y="0.088" width="515.658" height="409.212" style="fill:none;"/>
          <g transform="matrix(1,0,0,1,0,-41.0624)">
                <g transform="matrix(5.2932,0,0,3.23402,-17021,64.8041)">
                    <path d="M3264,13.291L3302.05,28.805L3264,44.318L3225.95,28.805L3264,13.291Z"
                      style="fill:rgb(0,165,188);stroke:rgb(30,72,71);stroke-width:4.31px;"/>
                </g>
            <g transform="matrix(5.2932,0,0,3.23402,-17021,240.4)">
                    <path d="M3264,13.291L3302.05,28.805L3264,44.318L3225.95,28.805L3264,13.291Z"
                      style="fill:rgb(0,165,188);stroke:rgb(30,72,71);stroke-width:4.31px;"/>
                </g>
            <g transform="matrix(4.02858,0,0,2.50851,-12893.3,82.7034)">
                    <path d="M3264,50L3264,120L3314,100L3314,30L3264,50Z" style="fill:rgb(78,143,166);stroke:rgb(30,72,71);stroke-width:5.62px;"/>
                </g>
            <g transform="matrix(-4.02858,0,0,2.50851,13405.3,82.7034)">
                    <path d="M3264,50L3264,120L3314,100L3314,30L3264,50Z" style="fill:rgb(78,143,166);stroke:rgb(30,72,71);stroke-width:5.62px;"/>
                </g>
            </g>
        </g>
    </g>
</svg>
