<?xml version="1.0" encoding="UTF-8" standalone="no"?>
<!DOCTYPE svg PUBLIC "-//W3C//DTD SVG 1.1//EN" "http://www.w3.org/Graphics/SVG/1.1/DTD/svg11.dtd">
<svg width="100%" height="100%" viewBox="0 0 128 128" version="1.1" xmlns="http://www.w3.org/2000/svg"
  xml:space="preserve"
  style="fill-rule:evenodd;clip-rule:evenodd;stroke-linecap:round;stroke-linejoin:round;stroke-miterlimit:1;">
    <g transform="matrix(1,0,0,1,-3400,0)">
        <g id="export-light" transform="matrix(0.248227,0,0,0.312796,3400.45,-0.0274995)">
            <rect x="-1.829" y="0.088" width="515.658" height="409.212" style="fill:none;"/>
          <clipPath id="_clip1">
                <rect x="-1.829" y="0.088" width="515.658" height="409.212"/>
            </clipPath>
          <g clip-path="url(#_clip1)">
                <g transform="matrix(3.95756,0,0,3.14061,-13455.9,1.40003)">
                    <path d="M3504.72,64.731L3504.72,104.718L3423.28,104.718L3423.28,23.282L3464,23.282"
                      style="fill:none;stroke:rgb(30,72,71);stroke-width:5.14px;"/>
                </g>
            <g transform="matrix(8.01082,0,0,5.06559,-11409.9,12.1754)">
                    <g transform="matrix(0.502892,-0,-0,0.631115,1424.08,-2.38619)">
                        <path d="M78.298,17.896L108.843,17.62L109.12,48.165"
                          style="fill:none;stroke:rgb(214,34,70);stroke-width:8px;stroke-linejoin:miter;stroke-miterlimit:10;"/>
                      <path d="M64,63.282L108.843,17.62" style="fill:none;stroke:rgb(214,34,70);stroke-width:8px;"/>
                    </g>
                </g>
            </g>
        </g>
    </g>
</svg>
