<?xml version="1.0" encoding="UTF-8" standalone="no"?>
<!DOCTYPE svg PUBLIC "-//W3C//DTD SVG 1.1//EN" "http://www.w3.org/Graphics/SVG/1.1/DTD/svg11.dtd">
<svg width="100%" height="100%" viewBox="0 0 128 128" version="1.1" xmlns="http://www.w3.org/2000/svg"
  xml:space="preserve"
  style="fill-rule:evenodd;clip-rule:evenodd;stroke-linecap:round;stroke-linejoin:round;stroke-miterlimit:1;">
    <g transform="matrix(1,0,0,1,-3800,0)">
        <g id="layer-light" transform="matrix(0.248227,0,0,0.312796,3800.45,-0.0274995)">
            <rect x="-1.829" y="0.088" width="515.658" height="409.212" style="fill:none;"/>
          <g transform="matrix(5.2932,0,0,3.23402,-17021,212.861)">
                <path d="M3264,13.291L3302.05,28.805L3264,44.318L3225.95,28.805L3264,13.291Z"
                  style="fill:rgb(78,143,166);stroke:rgb(30,72,71);stroke-width:4.31px;"/>
            </g>
          <g transform="matrix(5.2932,0,0,3.23402,-17021,165.581)">
                <path d="M3264,13.291L3302.05,28.805L3264,44.318L3225.95,28.805L3264,13.291Z"
                  style="fill:rgb(78,143,166);stroke:rgb(30,72,71);stroke-width:4.31px;"/>
            </g>
          <g transform="matrix(5.2932,0,0,3.23402,-17021,118.301)">
                <path d="M3264,13.291L3302.05,28.805L3264,44.318L3225.95,28.805L3264,13.291Z"
                  style="fill:rgb(78,143,166);stroke:rgb(30,72,71);stroke-width:4.31px;"/>
            </g>
          <g transform="matrix(5.2932,0,0,3.23402,-17021,71.0215)">
                <path d="M3264,13.291L3302.05,28.805L3264,44.318L3225.95,28.805L3264,13.291Z"
                  style="fill:rgb(78,143,166);stroke:rgb(30,72,71);stroke-width:4.31px;"/>
            </g>
          <g transform="matrix(5.2932,0,0,3.23402,-17021,23.7417)">
                <path d="M3264,13.291L3302.05,28.805L3264,44.318L3225.95,28.805L3264,13.291Z"
                  style="fill:rgb(0,165,188);stroke:rgb(30,72,71);stroke-width:4.31px;"/>
            </g>
        </g>
    </g>
</svg>
