<?xml version="1.0" encoding="UTF-8" standalone="no"?>
<!DOCTYPE svg PUBLIC "-//W3C//DTD SVG 1.1//EN" "http://www.w3.org/Graphics/SVG/1.1/DTD/svg11.dtd">
<svg width="100%" height="100%" viewBox="0 0 128 128" version="1.1" xmlns="http://www.w3.org/2000/svg"
  xml:space="preserve"
  style="fill-rule:evenodd;clip-rule:evenodd;stroke-linecap:round;stroke-linejoin:round;stroke-miterlimit:1;">
    <g transform="matrix(1,0,0,1,-5000,0)">
        <g id="pause-light" transform="matrix(0.248227,0,0,0.312796,5000.45,-0.0274995)">
            <rect x="-1.829" y="0.088" width="515.658" height="409.212" style="fill:none;"/>
          <g transform="matrix(-1.11561,0,0,3.39371,1762.81,-12.5032)">
                <path
                  d="M1307.33,26.319L1307.33,101.681C1307.33,104.801 1297.62,107.333 1285.67,107.333L1242.33,107.333C1230.38,107.333 1220.67,104.801 1220.67,101.681L1220.67,26.319C1220.67,23.199 1230.38,20.667 1242.33,20.667L1285.67,20.667C1297.62,20.667 1307.33,23.199 1307.33,26.319Z"
                  style="fill:rgb(0,165,188);stroke:rgb(30,72,71);stroke-width:6.45px;stroke-dasharray:0,0.32,0,0,0,0;"/>
            </g>
          <g transform="matrix(-1.11561,0,0,3.39371,1577.5,-12.5032)">
                <path
                  d="M1307.33,26.319L1307.33,101.681C1307.33,104.801 1297.62,107.333 1285.67,107.333L1242.33,107.333C1230.38,107.333 1220.67,104.801 1220.67,101.681L1220.67,26.319C1220.67,23.199 1230.38,20.667 1242.33,20.667L1285.67,20.667C1297.62,20.667 1307.33,23.199 1307.33,26.319Z"
                  style="fill:rgb(0,165,188);stroke:rgb(30,72,71);stroke-width:6.45px;stroke-dasharray:0,0.32,0,0,0,0;"/>
            </g>
        </g>
    </g>
</svg>
