<?xml version="1.0" encoding="UTF-8" standalone="no"?>
<!DOCTYPE svg PUBLIC "-//W3C//DTD SVG 1.1//EN" "http://www.w3.org/Graphics/SVG/1.1/DTD/svg11.dtd">
<svg width="100%" height="100%" viewBox="0 0 128 128" version="1.1" xmlns="http://www.w3.org/2000/svg"
  xml:space="preserve"
  style="fill-rule:evenodd;clip-rule:evenodd;stroke-linecap:round;stroke-linejoin:round;stroke-miterlimit:1;">
    <g transform="matrix(1,0,0,1,-5600,0)">
        <g id="rename-light" transform="matrix(0.248227,0,0,0.312796,5600.45,-0.0274995)">
            <rect x="-1.829" y="0.088" width="515.658" height="409.212" style="fill:none;"/>
          <g transform="matrix(-5.57803,0,0,2.95105,7306.63,15.8268)">
                <path
                  d="M1307.33,42.333L1307.33,85.667C1307.33,97.625 1300.86,107.333 1292.89,107.333L1235.11,107.333C1227.14,107.333 1220.67,97.625 1220.67,85.667L1220.67,42.333C1220.67,30.375 1227.14,20.667 1235.11,20.667L1292.89,20.667C1300.86,20.667 1307.33,30.375 1307.33,42.333Z"
                  style="fill:none;stroke:rgb(30,72,71);stroke-width:4.25px;stroke-dasharray:0,0.21,0,0,0,0;"/>
            </g>
          <g transform="matrix(-3.43979,0,0,2.95105,4511.23,15.8268)">
                <path
                  d="M1307.33,40.708L1307.33,87.292C1307.33,98.353 1297.62,107.333 1285.67,107.333L1242.33,107.333C1230.38,107.333 1220.67,98.353 1220.67,87.292L1220.67,40.708C1220.67,29.647 1230.38,20.667 1242.33,20.667L1285.67,20.667C1297.62,20.667 1307.33,29.647 1307.33,40.708Z"
                  style="fill:rgb(0,165,188);stroke:rgb(30,72,71);stroke-width:5.62px;stroke-dasharray:0,0.28,0,0,0,0;"/>
            </g>
          <g transform="matrix(-1.48747,0,0,0.368881,2192.57,5.25225)">
                <path
                  d="M1226.08,20.667C1223.09,20.667 1220.67,30.375 1220.67,42.333L1220.67,85.667C1220.67,97.625 1223.09,107.333 1226.08,107.333L1247.75,107.333L1247.75,974L1226.08,974C1223.09,974 1220.67,983.709 1220.67,995.667L1220.67,1039C1220.67,1050.96 1223.09,1060.67 1226.08,1060.67L1301.92,1060.67C1304.91,1060.67 1307.33,1050.96 1307.33,1039L1307.33,995.667C1307.33,983.709 1304.91,974 1301.92,974L1280.25,974L1280.25,107.333L1301.92,107.333C1304.91,107.333 1307.33,97.625 1307.33,85.667L1307.33,42.333C1307.33,30.375 1304.91,20.667 1301.92,20.667L1226.08,20.667Z"
                  style="fill:rgb(214,34,70);stroke:rgb(30,72,71);stroke-width:18.28px;stroke-dasharray:0,0.91,0,0,0,0;"/>
            </g>
          <g transform="matrix(4.02858,0,0,3.19697,-22647.8,91.0017)">
                <g transform="matrix(80,0,0,80,5687.54,64)">
                </g>
            <text x="5636.48px" y="64px" style="font-family:'Roboto-Black', 'Roboto';font-size:80px;fill:rgb(238,235,211);">A</text>
            </g>
        </g>
    </g>
</svg>
