<?xml version="1.0" encoding="UTF-8" standalone="no"?>
<!DOCTYPE svg PUBLIC "-//W3C//DTD SVG 1.1//EN" "http://www.w3.org/Graphics/SVG/1.1/DTD/svg11.dtd">
<svg width="100%" height="100%" viewBox="0 0 128 128" version="1.1" xmlns="http://www.w3.org/2000/svg" xmlns:xlink="http://www.w3.org/1999/xlink"
  xml:space="preserve" xmlns:serif="http://www.serif.com/"
  style="fill-rule:evenodd;clip-rule:evenodd;stroke-linecap:round;stroke-linejoin:round;stroke-miterlimit:1;">
    <g transform="matrix(1,0,0,1,-600,-200)">
        <g id="asset-dark" transform="matrix(0.248227,0,0,0.312796,600.454,199.973)">
            <rect x="-1.829" y="0.088" width="515.658" height="409.212" style="fill:none;"/>
          <g transform="matrix(1.30682,0,0,1.30682,-62.7516,-54.4481)">
                <g transform="matrix(3.78384,0,0,3.05797,-2902.39,2.58989)">
                    <path d="M843.222,18L843.222,47.273L873.033,47.273L873.033,110L789.988,110L789.988,18L843.222,18Z"
                      style="fill:white;stroke:rgb(0,165,188);stroke-width:4.04px;"/>
                </g>
            <g transform="matrix(3.0001,0,0,2.285,-2268.09,30.8693)">
                    <path
                      d="M805.751,26.424L805.751,30.581C805.751,31.364 805.14,32 804.388,32L800.399,32C799.647,32 799.037,31.364 799.037,30.581L799.037,26.424C799.037,25.64 799.647,25.004 800.399,25.004L804.388,25.004C805.14,25.004 805.751,25.64 805.751,26.424Z"
                      style="fill:rgb(0,165,188);"/>
                </g>
            <g transform="matrix(3.0001,0,0,2.285,-2268.09,62.839)">
                    <path
                      d="M805.751,26.424L805.751,30.581C805.751,31.364 805.14,32 804.388,32L800.399,32C799.647,32 799.037,31.364 799.037,30.581L799.037,26.424C799.037,25.64 799.647,25.004 800.399,25.004L804.388,25.004C805.14,25.004 805.751,25.64 805.751,26.424Z"
                      style="fill:rgb(0,165,188);"/>
                </g>
            <g transform="matrix(3.0001,0,0,2.285,-2268.09,94.8087)">
                    <path
                      d="M805.751,26.424L805.751,30.581C805.751,31.364 805.14,32 804.388,32L800.399,32C799.647,32 799.037,31.364 799.037,30.581L799.037,26.424C799.037,25.64 799.647,25.004 800.399,25.004L804.388,25.004C805.14,25.004 805.751,25.64 805.751,26.424Z"
                      style="fill:rgb(0,165,188);"/>
                </g>
            <g transform="matrix(3.0001,0,0,2.285,-2268.09,126.778)">
                    <path
                      d="M805.751,26.424L805.751,30.581C805.751,31.364 805.14,32 804.388,32L800.399,32C799.647,32 799.037,31.364 799.037,30.581L799.037,26.424C799.037,25.64 799.647,25.004 800.399,25.004L804.388,25.004C805.14,25.004 805.751,25.64 805.751,26.424Z"
                      style="fill:rgb(0,165,188);"/>
                </g>
            <g transform="matrix(3.0001,0,0,2.285,-2268.09,158.748)">
                    <path
                      d="M805.751,26.424L805.751,30.581C805.751,31.364 805.14,32 804.388,32L800.399,32C799.647,32 799.037,31.364 799.037,30.581L799.037,26.424C799.037,25.64 799.647,25.004 800.399,25.004L804.388,25.004C805.14,25.004 805.751,25.64 805.751,26.424Z"
                      style="fill:rgb(0,165,188);"/>
                </g>
            <g transform="matrix(3.0001,0,0,2.285,-2247.94,46.8542)">
                    <path
                      d="M805.751,26.424L805.751,30.581C805.751,31.364 805.14,32 804.388,32L800.399,32C799.647,32 799.037,31.364 799.037,30.581L799.037,26.424C799.037,25.64 799.647,25.004 800.399,25.004L804.388,25.004C805.14,25.004 805.751,25.64 805.751,26.424Z"
                      style="fill:rgb(0,165,188);"/>
                </g>
            <g transform="matrix(3.0001,0,0,2.285,-2247.94,78.8239)">
                    <path
                      d="M805.751,26.424L805.751,30.581C805.751,31.364 805.14,32 804.388,32L800.399,32C799.647,32 799.037,31.364 799.037,30.581L799.037,26.424C799.037,25.64 799.647,25.004 800.399,25.004L804.388,25.004C805.14,25.004 805.751,25.64 805.751,26.424Z"
                      style="fill:rgb(0,165,188);"/>
                </g>
            <g transform="matrix(3.0001,0,0,2.285,-2247.94,110.794)">
                    <path
                      d="M805.751,26.424L805.751,30.581C805.751,31.364 805.14,32 804.388,32L800.399,32C799.647,32 799.037,31.364 799.037,30.581L799.037,26.424C799.037,25.64 799.647,25.004 800.399,25.004L804.388,25.004C805.14,25.004 805.751,25.64 805.751,26.424Z"
                      style="fill:rgb(0,165,188);"/>
                </g>
            <g transform="matrix(3.0001,0,0,2.285,-2247.94,142.763)">
                    <path
                      d="M805.751,26.424L805.751,30.581C805.751,31.364 805.14,32 804.388,32L800.399,32C799.647,32 799.037,31.364 799.037,30.581L799.037,26.424C799.037,25.64 799.647,25.004 800.399,25.004L804.388,25.004C805.14,25.004 805.751,25.64 805.751,26.424Z"
                      style="fill:rgb(0,165,188);"/>
                </g>
            <g transform="matrix(6.00019,0,0,4.57,-4665.27,125.59)">
                    <path
                      d="M805.751,26.424L805.751,30.581C805.751,31.364 805.14,32 804.388,32L800.399,32C799.647,32 799.037,31.364 799.037,30.581L799.037,26.424C799.037,25.64 799.647,25.004 800.399,25.004L804.388,25.004C805.14,25.004 805.751,25.64 805.751,26.424Z"
                      style="fill:none;stroke:rgb(0,165,188);stroke-width:1.57px;"/>
                </g>
            <g transform="matrix(4.02858,0,0,3.19697,-3095.78,0.0879151)">
                    <path d="M840,18L868,46L840,46L840,18Z" style="fill:white;stroke:rgb(0,165,188);stroke-width:3.83px;"/>
                </g>
            </g>
        </g>
    </g>
</svg>
