<?xml version="1.0" encoding="UTF-8" standalone="no"?>
<!DOCTYPE svg PUBLIC "-//W3C//DTD SVG 1.1//EN" "http://www.w3.org/Graphics/SVG/1.1/DTD/svg11.dtd">
<svg width="100%" height="100%" viewBox="0 0 128 128" version="1.1" xmlns="http://www.w3.org/2000/svg"
  xml:space="preserve"
  style="fill-rule:evenodd;clip-rule:evenodd;stroke-linecap:round;stroke-linejoin:round;stroke-miterlimit:1;">
    <g transform="matrix(1,0,0,1,-8200,-200)">
        <g id="asset_tileset-dark" transform="matrix(0.248227,0,0,0.312796,8200.45,199.973)">
            <rect x="-1.829" y="0.088" width="515.658" height="409.212" style="fill:none;"/>
          <g transform="matrix(1.30682,0,0,1.30682,-62.7516,-54.4481)">
                <g transform="matrix(3.78384,0,0,3.05797,-2902.39,2.58989)">
                    <path d="M843.222,18L843.222,47.273L873.033,47.273L873.033,110L789.988,110L789.988,18L843.222,18Z"
                      style="fill:white;stroke:rgb(0,165,188);stroke-width:4.04px;"/>
                </g>
            <g transform="matrix(4.02858,0,0,3.19697,-3095.78,0.0879151)">
                    <path d="M840,18L868,46L840,46L840,18Z" style="fill:white;stroke:rgb(0,165,188);stroke-width:3.83px;"/>
                </g>
            </g>
          <g transform="matrix(-0.838375,0,0,0.665312,1221.48,146.002)">
                <path
                  d="M1307.33,42.333L1307.33,85.667C1307.33,97.625 1297.62,107.333 1285.67,107.333L1242.33,107.333C1230.38,107.333 1220.67,97.625 1220.67,85.667L1220.67,42.333C1220.67,30.375 1230.38,20.667 1242.33,20.667L1285.67,20.667C1297.62,20.667 1307.33,30.375 1307.33,42.333Z"
                  style="fill:rgb(0,165,188);"/>
            <path
              d="M1307.33,42.333C1307.33,30.375 1297.62,20.667 1285.67,20.667L1242.33,20.667C1230.38,20.667 1220.67,30.375 1220.67,42.333L1220.67,85.667C1220.67,97.625 1230.38,107.333 1242.33,107.333L1285.67,107.333C1297.62,107.333 1307.33,97.625 1307.33,85.667L1307.33,42.333ZM1283.32,45.337L1283.31,45.938L1283.32,46.539L1283.31,47.14L1283.32,47.74L1283.31,48.341L1283.32,48.942L1283.31,49.543L1283.32,50.144L1283.31,50.744L1283.32,51.345L1283.31,51.946L1283.32,52.547L1283.31,53.147L1283.32,53.748L1283.31,54.349L1283.32,54.95L1283.31,55.551L1283.32,56.151L1283.31,56.752L1283.32,57.353L1283.31,57.954L1283.32,58.554L1283.31,59.155L1283.32,59.756L1283.31,60.357L1283.32,60.957L1283.31,61.558L1283.32,62.159L1283.31,62.76L1283.32,63.361L1283.31,63.961L1283.32,64.562L1283.31,65.163L1283.32,65.764L1283.31,66.364L1283.32,66.965L1283.31,67.566L1283.32,68.167L1283.31,68.767L1283.32,69.368L1283.31,69.969L1283.32,70.57L1283.31,71.171L1283.32,71.771L1283.31,72.372L1283.32,72.973L1283.31,73.574L1283.32,74.174L1283.31,74.775L1283.32,75.376L1283.31,75.977L1283.32,76.578L1283.31,77.178L1283.32,77.779L1283.31,78.38L1283.32,78.98L1283.31,79.581L1283.32,80.182L1283.31,80.783L1283.32,81.384L1283.31,81.984L1283.32,82.585L1283.31,83.186L1283.31,83.311L1283.13,83.315L1282.53,83.307L1281.93,83.315L1281.33,83.307L1280.73,83.315L1280.13,83.307L1279.53,83.315L1278.93,83.307L1278.33,83.315L1277.73,83.307L1277.12,83.315L1276.52,83.307L1275.92,83.315L1275.32,83.307L1274.72,83.315L1274.12,83.307L1273.52,83.315L1272.92,83.307L1272.32,83.315L1271.72,83.307L1271.12,83.315L1270.52,83.307L1269.91,83.315L1269.31,83.307L1268.71,83.315L1268.11,83.307L1267.51,83.315L1266.91,83.307L1266.31,83.315L1265.71,83.307L1265.11,83.315L1264.51,83.307L1263.91,83.315L1263.31,83.307L1262.71,83.315L1262.11,83.307L1261.5,83.315L1260.9,83.307L1260.3,83.315L1259.7,83.307L1259.1,83.315L1258.5,83.307L1257.9,83.315L1257.3,83.307L1256.7,83.315L1256.1,83.307L1255.5,83.315L1254.9,83.307L1254.3,83.315L1253.69,83.307L1253.09,83.315L1252.49,83.307L1251.89,83.315L1251.29,83.307L1250.69,83.315L1250.09,83.307L1249.49,83.315L1248.89,83.307L1248.29,83.315L1247.69,83.307L1247.09,83.315L1246.49,83.307L1245.88,83.315L1245.28,83.307L1244.69,83.315L1244.69,83.001L1244.68,82.4L1244.69,81.8L1244.68,81.199L1244.69,80.598L1244.68,79.997L1244.69,79.396L1244.68,78.796L1244.69,78.195L1244.68,77.594L1244.69,76.993L1244.68,76.393L1244.69,75.792L1244.68,75.191L1244.69,74.59L1244.68,73.989L1244.69,73.389L1244.68,72.788L1244.69,72.187L1244.68,71.586L1244.69,70.986L1244.68,70.385L1244.69,69.784L1244.68,69.183L1244.69,68.582L1244.68,67.982L1244.69,67.381L1244.68,66.78L1244.69,66.179L1244.68,65.579L1244.69,64.978L1244.68,64.377L1244.69,63.776L1244.68,63.176L1244.69,62.575L1244.68,61.974L1244.69,61.373L1244.68,60.772L1244.69,60.172L1244.68,59.571L1244.69,58.97L1244.68,58.369L1244.69,57.769L1244.68,57.168L1244.69,56.567L1244.68,55.966L1244.69,55.366L1244.68,54.765L1244.69,54.164L1244.68,53.563L1244.69,52.962L1244.68,52.362L1244.69,51.761L1244.68,51.16L1244.69,50.559L1244.68,49.959L1244.69,49.358L1244.68,48.757L1244.69,48.156L1244.68,47.555L1244.69,46.955L1244.68,46.354L1244.69,45.753L1244.68,45.151L1244.69,44.692L1245.13,44.685L1245.73,44.693L1246.33,44.685L1246.93,44.693L1247.53,44.685L1248.13,44.693L1248.74,44.685L1249.34,44.693L1249.94,44.685L1250.54,44.693L1251.14,44.685L1251.74,44.693L1252.34,44.685L1252.94,44.693L1253.54,44.685L1254.14,44.693L1254.74,44.685L1255.34,44.693L1255.94,44.685L1256.55,44.693L1257.15,44.685L1257.75,44.693L1258.35,44.685L1258.95,44.693L1259.55,44.685L1260.15,44.693L1260.75,44.685L1261.35,44.693L1261.95,44.685L1262.55,44.693L1263.15,44.685L1263.75,44.693L1264.36,44.685L1264.96,44.693L1265.56,44.685L1266.16,44.693L1266.76,44.685L1267.36,44.693L1267.96,44.685L1268.56,44.693L1269.16,44.685L1269.76,44.693L1270.36,44.685L1270.96,44.693L1271.56,44.685L1272.16,44.693L1272.77,44.685L1273.37,44.693L1273.97,44.685L1274.57,44.693L1275.17,44.685L1275.77,44.693L1276.37,44.685L1276.97,44.693L1277.57,44.685L1278.17,44.693L1278.77,44.685L1279.37,44.693L1279.98,44.685L1280.58,44.693L1281.18,44.685L1281.78,44.693L1282.38,44.685L1282.98,44.693L1283.31,44.691L1283.31,44.737L1283.32,45.337Z"
              style="fill:rgb(0,165,188);"/>
            </g>
          <g transform="matrix(-0.838375,0,0,0.665312,1221.48,220.78)">
                <path
                  d="M1307.33,42.333L1307.33,85.667C1307.33,97.625 1297.62,107.333 1285.67,107.333L1242.33,107.333C1230.38,107.333 1220.67,97.625 1220.67,85.667L1220.67,42.333C1220.67,30.375 1230.38,20.667 1242.33,20.667L1285.67,20.667C1297.62,20.667 1307.33,30.375 1307.33,42.333Z"
                  style="fill:rgb(0,165,188);"/>
            <path
              d="M1307.33,42.333C1307.33,30.375 1297.62,20.667 1285.67,20.667L1242.33,20.667C1230.38,20.667 1220.67,30.375 1220.67,42.333L1220.67,85.667C1220.67,97.625 1230.38,107.333 1242.33,107.333L1285.67,107.333C1297.62,107.333 1307.33,97.625 1307.33,85.667L1307.33,42.333ZM1283.32,45.337L1283.31,45.938L1283.32,46.539L1283.31,47.14L1283.32,47.74L1283.31,48.341L1283.32,48.942L1283.31,49.543L1283.32,50.144L1283.31,50.744L1283.32,51.345L1283.31,51.946L1283.32,52.547L1283.31,53.147L1283.32,53.748L1283.31,54.349L1283.32,54.95L1283.31,55.551L1283.32,56.151L1283.31,56.752L1283.32,57.353L1283.31,57.954L1283.32,58.554L1283.31,59.155L1283.32,59.756L1283.31,60.357L1283.32,60.957L1283.31,61.558L1283.32,62.159L1283.31,62.76L1283.32,63.361L1283.31,63.961L1283.32,64.562L1283.31,65.163L1283.32,65.764L1283.31,66.364L1283.32,66.965L1283.31,67.566L1283.32,68.167L1283.31,68.767L1283.32,69.368L1283.31,69.969L1283.32,70.57L1283.31,71.171L1283.32,71.771L1283.31,72.372L1283.32,72.973L1283.31,73.574L1283.32,74.174L1283.31,74.775L1283.32,75.376L1283.31,75.977L1283.32,76.578L1283.31,77.178L1283.32,77.779L1283.31,78.38L1283.32,78.98L1283.31,79.581L1283.32,80.182L1283.31,80.783L1283.32,81.384L1283.31,81.984L1283.32,82.585L1283.31,83.186L1283.31,83.311L1283.13,83.315L1282.53,83.307L1281.93,83.315L1281.33,83.307L1280.73,83.315L1280.13,83.307L1279.53,83.315L1278.93,83.307L1278.33,83.315L1277.73,83.307L1277.12,83.315L1276.52,83.307L1275.92,83.315L1275.32,83.307L1274.72,83.315L1274.12,83.307L1273.52,83.315L1272.92,83.307L1272.32,83.315L1271.72,83.307L1271.12,83.315L1270.52,83.307L1269.91,83.315L1269.31,83.307L1268.71,83.315L1268.11,83.307L1267.51,83.315L1266.91,83.307L1266.31,83.315L1265.71,83.307L1265.11,83.315L1264.51,83.307L1263.91,83.315L1263.31,83.307L1262.71,83.315L1262.11,83.307L1261.5,83.315L1260.9,83.307L1260.3,83.315L1259.7,83.307L1259.1,83.315L1258.5,83.307L1257.9,83.315L1257.3,83.307L1256.7,83.315L1256.1,83.307L1255.5,83.315L1254.9,83.307L1254.3,83.315L1253.69,83.307L1253.09,83.315L1252.49,83.307L1251.89,83.315L1251.29,83.307L1250.69,83.315L1250.09,83.307L1249.49,83.315L1248.89,83.307L1248.29,83.315L1247.69,83.307L1247.09,83.315L1246.49,83.307L1245.88,83.315L1245.28,83.307L1244.69,83.315L1244.69,83.001L1244.68,82.4L1244.69,81.8L1244.68,81.199L1244.69,80.598L1244.68,79.997L1244.69,79.396L1244.68,78.796L1244.69,78.195L1244.68,77.594L1244.69,76.993L1244.68,76.393L1244.69,75.792L1244.68,75.191L1244.69,74.59L1244.68,73.989L1244.69,73.389L1244.68,72.788L1244.69,72.187L1244.68,71.586L1244.69,70.986L1244.68,70.385L1244.69,69.784L1244.68,69.183L1244.69,68.582L1244.68,67.982L1244.69,67.381L1244.68,66.78L1244.69,66.179L1244.68,65.579L1244.69,64.978L1244.68,64.377L1244.69,63.776L1244.68,63.176L1244.69,62.575L1244.68,61.974L1244.69,61.373L1244.68,60.772L1244.69,60.172L1244.68,59.571L1244.69,58.97L1244.68,58.369L1244.69,57.769L1244.68,57.168L1244.69,56.567L1244.68,55.966L1244.69,55.366L1244.68,54.765L1244.69,54.164L1244.68,53.563L1244.69,52.962L1244.68,52.362L1244.69,51.761L1244.68,51.16L1244.69,50.559L1244.68,49.959L1244.69,49.358L1244.68,48.757L1244.69,48.156L1244.68,47.555L1244.69,46.955L1244.68,46.354L1244.69,45.753L1244.68,45.151L1244.69,44.692L1245.13,44.685L1245.73,44.693L1246.33,44.685L1246.93,44.693L1247.53,44.685L1248.13,44.693L1248.74,44.685L1249.34,44.693L1249.94,44.685L1250.54,44.693L1251.14,44.685L1251.74,44.693L1252.34,44.685L1252.94,44.693L1253.54,44.685L1254.14,44.693L1254.74,44.685L1255.34,44.693L1255.94,44.685L1256.55,44.693L1257.15,44.685L1257.75,44.693L1258.35,44.685L1258.95,44.693L1259.55,44.685L1260.15,44.693L1260.75,44.685L1261.35,44.693L1261.95,44.685L1262.55,44.693L1263.15,44.685L1263.75,44.693L1264.36,44.685L1264.96,44.693L1265.56,44.685L1266.16,44.693L1266.76,44.685L1267.36,44.693L1267.96,44.685L1268.56,44.693L1269.16,44.685L1269.76,44.693L1270.36,44.685L1270.96,44.693L1271.56,44.685L1272.16,44.693L1272.77,44.685L1273.37,44.693L1273.97,44.685L1274.57,44.693L1275.17,44.685L1275.77,44.693L1276.37,44.685L1276.97,44.693L1277.57,44.685L1278.17,44.693L1278.77,44.685L1279.37,44.693L1279.98,44.685L1280.58,44.693L1281.18,44.685L1281.78,44.693L1282.38,44.685L1282.98,44.693L1283.31,44.691L1283.31,44.737L1283.32,45.337Z"
              style="fill:rgb(0,165,188);"/>
            </g>
          <g transform="matrix(-0.838375,0,0,0.665312,1221.48,295.559)">
                <path
                  d="M1307.33,42.333L1307.33,85.667C1307.33,97.625 1297.62,107.333 1285.67,107.333L1242.33,107.333C1230.38,107.333 1220.67,97.625 1220.67,85.667L1220.67,42.333C1220.67,30.375 1230.38,20.667 1242.33,20.667L1285.67,20.667C1297.62,20.667 1307.33,30.375 1307.33,42.333Z"
                  style="fill:rgb(0,165,188);"/>
            <path
              d="M1307.33,42.333C1307.33,30.375 1297.62,20.667 1285.67,20.667L1242.33,20.667C1230.38,20.667 1220.67,30.375 1220.67,42.333L1220.67,85.667C1220.67,97.625 1230.38,107.333 1242.33,107.333L1285.67,107.333C1297.62,107.333 1307.33,97.625 1307.33,85.667L1307.33,42.333ZM1283.32,45.337L1283.31,45.938L1283.32,46.539L1283.31,47.14L1283.32,47.74L1283.31,48.341L1283.32,48.942L1283.31,49.543L1283.32,50.144L1283.31,50.744L1283.32,51.345L1283.31,51.946L1283.32,52.547L1283.31,53.147L1283.32,53.748L1283.31,54.349L1283.32,54.95L1283.31,55.551L1283.32,56.151L1283.31,56.752L1283.32,57.353L1283.31,57.954L1283.32,58.554L1283.31,59.155L1283.32,59.756L1283.31,60.357L1283.32,60.957L1283.31,61.558L1283.32,62.159L1283.31,62.76L1283.32,63.361L1283.31,63.961L1283.32,64.562L1283.31,65.163L1283.32,65.764L1283.31,66.364L1283.32,66.965L1283.31,67.566L1283.32,68.167L1283.31,68.767L1283.32,69.368L1283.31,69.969L1283.32,70.57L1283.31,71.171L1283.32,71.771L1283.31,72.372L1283.32,72.973L1283.31,73.574L1283.32,74.174L1283.31,74.775L1283.32,75.376L1283.31,75.977L1283.32,76.578L1283.31,77.178L1283.32,77.779L1283.31,78.38L1283.32,78.98L1283.31,79.581L1283.32,80.182L1283.31,80.783L1283.32,81.384L1283.31,81.984L1283.32,82.585L1283.31,83.186L1283.31,83.311L1283.13,83.315L1282.53,83.307L1281.93,83.315L1281.33,83.307L1280.73,83.315L1280.13,83.307L1279.53,83.315L1278.93,83.307L1278.33,83.315L1277.73,83.307L1277.12,83.315L1276.52,83.307L1275.92,83.315L1275.32,83.307L1274.72,83.315L1274.12,83.307L1273.52,83.315L1272.92,83.307L1272.32,83.315L1271.72,83.307L1271.12,83.315L1270.52,83.307L1269.91,83.315L1269.31,83.307L1268.71,83.315L1268.11,83.307L1267.51,83.315L1266.91,83.307L1266.31,83.315L1265.71,83.307L1265.11,83.315L1264.51,83.307L1263.91,83.315L1263.31,83.307L1262.71,83.315L1262.11,83.307L1261.5,83.315L1260.9,83.307L1260.3,83.315L1259.7,83.307L1259.1,83.315L1258.5,83.307L1257.9,83.315L1257.3,83.307L1256.7,83.315L1256.1,83.307L1255.5,83.315L1254.9,83.307L1254.3,83.315L1253.69,83.307L1253.09,83.315L1252.49,83.307L1251.89,83.315L1251.29,83.307L1250.69,83.315L1250.09,83.307L1249.49,83.315L1248.89,83.307L1248.29,83.315L1247.69,83.307L1247.09,83.315L1246.49,83.307L1245.88,83.315L1245.28,83.307L1244.69,83.315L1244.69,83.001L1244.68,82.4L1244.69,81.8L1244.68,81.199L1244.69,80.598L1244.68,79.997L1244.69,79.396L1244.68,78.796L1244.69,78.195L1244.68,77.594L1244.69,76.993L1244.68,76.393L1244.69,75.792L1244.68,75.191L1244.69,74.59L1244.68,73.989L1244.69,73.389L1244.68,72.788L1244.69,72.187L1244.68,71.586L1244.69,70.986L1244.68,70.385L1244.69,69.784L1244.68,69.183L1244.69,68.582L1244.68,67.982L1244.69,67.381L1244.68,66.78L1244.69,66.179L1244.68,65.579L1244.69,64.978L1244.68,64.377L1244.69,63.776L1244.68,63.176L1244.69,62.575L1244.68,61.974L1244.69,61.373L1244.68,60.772L1244.69,60.172L1244.68,59.571L1244.69,58.97L1244.68,58.369L1244.69,57.769L1244.68,57.168L1244.69,56.567L1244.68,55.966L1244.69,55.366L1244.68,54.765L1244.69,54.164L1244.68,53.563L1244.69,52.962L1244.68,52.362L1244.69,51.761L1244.68,51.16L1244.69,50.559L1244.68,49.959L1244.69,49.358L1244.68,48.757L1244.69,48.156L1244.68,47.555L1244.69,46.955L1244.68,46.354L1244.69,45.753L1244.68,45.151L1244.69,44.692L1245.13,44.685L1245.73,44.693L1246.33,44.685L1246.93,44.693L1247.53,44.685L1248.13,44.693L1248.74,44.685L1249.34,44.693L1249.94,44.685L1250.54,44.693L1251.14,44.685L1251.74,44.693L1252.34,44.685L1252.94,44.693L1253.54,44.685L1254.14,44.693L1254.74,44.685L1255.34,44.693L1255.94,44.685L1256.55,44.693L1257.15,44.685L1257.75,44.693L1258.35,44.685L1258.95,44.693L1259.55,44.685L1260.15,44.693L1260.75,44.685L1261.35,44.693L1261.95,44.685L1262.55,44.693L1263.15,44.685L1263.75,44.693L1264.36,44.685L1264.96,44.693L1265.56,44.685L1266.16,44.693L1266.76,44.685L1267.36,44.693L1267.96,44.685L1268.56,44.693L1269.16,44.685L1269.76,44.693L1270.36,44.685L1270.96,44.693L1271.56,44.685L1272.16,44.693L1272.77,44.685L1273.37,44.693L1273.97,44.685L1274.57,44.693L1275.17,44.685L1275.77,44.693L1276.37,44.685L1276.97,44.693L1277.57,44.685L1278.17,44.693L1278.77,44.685L1279.37,44.693L1279.98,44.685L1280.58,44.693L1281.18,44.685L1281.78,44.693L1282.38,44.685L1282.98,44.693L1283.31,44.691L1283.31,44.737L1283.32,45.337Z"
              style="fill:rgb(0,165,188);"/>
            </g>
          <g transform="matrix(-0.838375,0,0,0.665312,1315.71,146.002)">
                <path
                  d="M1307.33,42.333L1307.33,85.667C1307.33,97.625 1297.62,107.333 1285.67,107.333L1242.33,107.333C1230.38,107.333 1220.67,97.625 1220.67,85.667L1220.67,42.333C1220.67,30.375 1230.38,20.667 1242.33,20.667L1285.67,20.667C1297.62,20.667 1307.33,30.375 1307.33,42.333Z"
                  style="fill:rgb(0,165,188);"/>
            <path
              d="M1307.33,42.333C1307.33,30.375 1297.62,20.667 1285.67,20.667L1242.33,20.667C1230.38,20.667 1220.67,30.375 1220.67,42.333L1220.67,85.667C1220.67,97.625 1230.38,107.333 1242.33,107.333L1285.67,107.333C1297.62,107.333 1307.33,97.625 1307.33,85.667L1307.33,42.333ZM1283.32,45.337L1283.31,45.938L1283.32,46.539L1283.31,47.14L1283.32,47.74L1283.31,48.341L1283.32,48.942L1283.31,49.543L1283.32,50.144L1283.31,50.744L1283.32,51.345L1283.31,51.946L1283.32,52.547L1283.31,53.147L1283.32,53.748L1283.31,54.349L1283.32,54.95L1283.31,55.551L1283.32,56.151L1283.31,56.752L1283.32,57.353L1283.31,57.954L1283.32,58.554L1283.31,59.155L1283.32,59.756L1283.31,60.357L1283.32,60.957L1283.31,61.558L1283.32,62.159L1283.31,62.76L1283.32,63.361L1283.31,63.961L1283.32,64.562L1283.31,65.163L1283.32,65.764L1283.31,66.364L1283.32,66.965L1283.31,67.566L1283.32,68.167L1283.31,68.767L1283.32,69.368L1283.31,69.969L1283.32,70.57L1283.31,71.171L1283.32,71.771L1283.31,72.372L1283.32,72.973L1283.31,73.574L1283.32,74.174L1283.31,74.775L1283.32,75.376L1283.31,75.977L1283.32,76.578L1283.31,77.178L1283.32,77.779L1283.31,78.38L1283.32,78.98L1283.31,79.581L1283.32,80.182L1283.31,80.783L1283.32,81.384L1283.31,81.984L1283.32,82.585L1283.31,83.186L1283.31,83.311L1283.13,83.315L1282.53,83.307L1281.93,83.315L1281.33,83.307L1280.73,83.315L1280.13,83.307L1279.53,83.315L1278.93,83.307L1278.33,83.315L1277.73,83.307L1277.12,83.315L1276.52,83.307L1275.92,83.315L1275.32,83.307L1274.72,83.315L1274.12,83.307L1273.52,83.315L1272.92,83.307L1272.32,83.315L1271.72,83.307L1271.12,83.315L1270.52,83.307L1269.91,83.315L1269.31,83.307L1268.71,83.315L1268.11,83.307L1267.51,83.315L1266.91,83.307L1266.31,83.315L1265.71,83.307L1265.11,83.315L1264.51,83.307L1263.91,83.315L1263.31,83.307L1262.71,83.315L1262.11,83.307L1261.5,83.315L1260.9,83.307L1260.3,83.315L1259.7,83.307L1259.1,83.315L1258.5,83.307L1257.9,83.315L1257.3,83.307L1256.7,83.315L1256.1,83.307L1255.5,83.315L1254.9,83.307L1254.3,83.315L1253.69,83.307L1253.09,83.315L1252.49,83.307L1251.89,83.315L1251.29,83.307L1250.69,83.315L1250.09,83.307L1249.49,83.315L1248.89,83.307L1248.29,83.315L1247.69,83.307L1247.09,83.315L1246.49,83.307L1245.88,83.315L1245.28,83.307L1244.69,83.315L1244.69,83.001L1244.68,82.4L1244.69,81.8L1244.68,81.199L1244.69,80.598L1244.68,79.997L1244.69,79.396L1244.68,78.796L1244.69,78.195L1244.68,77.594L1244.69,76.993L1244.68,76.393L1244.69,75.792L1244.68,75.191L1244.69,74.59L1244.68,73.989L1244.69,73.389L1244.68,72.788L1244.69,72.187L1244.68,71.586L1244.69,70.986L1244.68,70.385L1244.69,69.784L1244.68,69.183L1244.69,68.582L1244.68,67.982L1244.69,67.381L1244.68,66.78L1244.69,66.179L1244.68,65.579L1244.69,64.978L1244.68,64.377L1244.69,63.776L1244.68,63.176L1244.69,62.575L1244.68,61.974L1244.69,61.373L1244.68,60.772L1244.69,60.172L1244.68,59.571L1244.69,58.97L1244.68,58.369L1244.69,57.769L1244.68,57.168L1244.69,56.567L1244.68,55.966L1244.69,55.366L1244.68,54.765L1244.69,54.164L1244.68,53.563L1244.69,52.962L1244.68,52.362L1244.69,51.761L1244.68,51.16L1244.69,50.559L1244.68,49.959L1244.69,49.358L1244.68,48.757L1244.69,48.156L1244.68,47.555L1244.69,46.955L1244.68,46.354L1244.69,45.753L1244.68,45.151L1244.69,44.692L1245.13,44.685L1245.73,44.693L1246.33,44.685L1246.93,44.693L1247.53,44.685L1248.13,44.693L1248.74,44.685L1249.34,44.693L1249.94,44.685L1250.54,44.693L1251.14,44.685L1251.74,44.693L1252.34,44.685L1252.94,44.693L1253.54,44.685L1254.14,44.693L1254.74,44.685L1255.34,44.693L1255.94,44.685L1256.55,44.693L1257.15,44.685L1257.75,44.693L1258.35,44.685L1258.95,44.693L1259.55,44.685L1260.15,44.693L1260.75,44.685L1261.35,44.693L1261.95,44.685L1262.55,44.693L1263.15,44.685L1263.75,44.693L1264.36,44.685L1264.96,44.693L1265.56,44.685L1266.16,44.693L1266.76,44.685L1267.36,44.693L1267.96,44.685L1268.56,44.693L1269.16,44.685L1269.76,44.693L1270.36,44.685L1270.96,44.693L1271.56,44.685L1272.16,44.693L1272.77,44.685L1273.37,44.693L1273.97,44.685L1274.57,44.693L1275.17,44.685L1275.77,44.693L1276.37,44.685L1276.97,44.693L1277.57,44.685L1278.17,44.693L1278.77,44.685L1279.37,44.693L1279.98,44.685L1280.58,44.693L1281.18,44.685L1281.78,44.693L1282.38,44.685L1282.98,44.693L1283.31,44.691L1283.31,44.737L1283.32,45.337Z"
              style="fill:rgb(0,165,188);"/>
            </g>
          <g transform="matrix(-0.838375,0,0,0.665312,1315.71,220.78)">
                <path
                  d="M1307.33,42.333L1307.33,85.667C1307.33,97.625 1297.62,107.333 1285.67,107.333L1242.33,107.333C1230.38,107.333 1220.67,97.625 1220.67,85.667L1220.67,42.333C1220.67,30.375 1230.38,20.667 1242.33,20.667L1285.67,20.667C1297.62,20.667 1307.33,30.375 1307.33,42.333Z"
                  style="fill:rgb(0,165,188);"/>
            <path
              d="M1307.33,42.333C1307.33,30.375 1297.62,20.667 1285.67,20.667L1242.33,20.667C1230.38,20.667 1220.67,30.375 1220.67,42.333L1220.67,85.667C1220.67,97.625 1230.38,107.333 1242.33,107.333L1285.67,107.333C1297.62,107.333 1307.33,97.625 1307.33,85.667L1307.33,42.333ZM1283.32,45.337L1283.31,45.938L1283.32,46.539L1283.31,47.14L1283.32,47.74L1283.31,48.341L1283.32,48.942L1283.31,49.543L1283.32,50.144L1283.31,50.744L1283.32,51.345L1283.31,51.946L1283.32,52.547L1283.31,53.147L1283.32,53.748L1283.31,54.349L1283.32,54.95L1283.31,55.551L1283.32,56.151L1283.31,56.752L1283.32,57.353L1283.31,57.954L1283.32,58.554L1283.31,59.155L1283.32,59.756L1283.31,60.357L1283.32,60.957L1283.31,61.558L1283.32,62.159L1283.31,62.76L1283.32,63.361L1283.31,63.961L1283.32,64.562L1283.31,65.163L1283.32,65.764L1283.31,66.364L1283.32,66.965L1283.31,67.566L1283.32,68.167L1283.31,68.767L1283.32,69.368L1283.31,69.969L1283.32,70.57L1283.31,71.171L1283.32,71.771L1283.31,72.372L1283.32,72.973L1283.31,73.574L1283.32,74.174L1283.31,74.775L1283.32,75.376L1283.31,75.977L1283.32,76.578L1283.31,77.178L1283.32,77.779L1283.31,78.38L1283.32,78.98L1283.31,79.581L1283.32,80.182L1283.31,80.783L1283.32,81.384L1283.31,81.984L1283.32,82.585L1283.31,83.186L1283.31,83.311L1283.13,83.315L1282.53,83.307L1281.93,83.315L1281.33,83.307L1280.73,83.315L1280.13,83.307L1279.53,83.315L1278.93,83.307L1278.33,83.315L1277.73,83.307L1277.12,83.315L1276.52,83.307L1275.92,83.315L1275.32,83.307L1274.72,83.315L1274.12,83.307L1273.52,83.315L1272.92,83.307L1272.32,83.315L1271.72,83.307L1271.12,83.315L1270.52,83.307L1269.91,83.315L1269.31,83.307L1268.71,83.315L1268.11,83.307L1267.51,83.315L1266.91,83.307L1266.31,83.315L1265.71,83.307L1265.11,83.315L1264.51,83.307L1263.91,83.315L1263.31,83.307L1262.71,83.315L1262.11,83.307L1261.5,83.315L1260.9,83.307L1260.3,83.315L1259.7,83.307L1259.1,83.315L1258.5,83.307L1257.9,83.315L1257.3,83.307L1256.7,83.315L1256.1,83.307L1255.5,83.315L1254.9,83.307L1254.3,83.315L1253.69,83.307L1253.09,83.315L1252.49,83.307L1251.89,83.315L1251.29,83.307L1250.69,83.315L1250.09,83.307L1249.49,83.315L1248.89,83.307L1248.29,83.315L1247.69,83.307L1247.09,83.315L1246.49,83.307L1245.88,83.315L1245.28,83.307L1244.69,83.315L1244.69,83.001L1244.68,82.4L1244.69,81.8L1244.68,81.199L1244.69,80.598L1244.68,79.997L1244.69,79.396L1244.68,78.796L1244.69,78.195L1244.68,77.594L1244.69,76.993L1244.68,76.393L1244.69,75.792L1244.68,75.191L1244.69,74.59L1244.68,73.989L1244.69,73.389L1244.68,72.788L1244.69,72.187L1244.68,71.586L1244.69,70.986L1244.68,70.385L1244.69,69.784L1244.68,69.183L1244.69,68.582L1244.68,67.982L1244.69,67.381L1244.68,66.78L1244.69,66.179L1244.68,65.579L1244.69,64.978L1244.68,64.377L1244.69,63.776L1244.68,63.176L1244.69,62.575L1244.68,61.974L1244.69,61.373L1244.68,60.772L1244.69,60.172L1244.68,59.571L1244.69,58.97L1244.68,58.369L1244.69,57.769L1244.68,57.168L1244.69,56.567L1244.68,55.966L1244.69,55.366L1244.68,54.765L1244.69,54.164L1244.68,53.563L1244.69,52.962L1244.68,52.362L1244.69,51.761L1244.68,51.16L1244.69,50.559L1244.68,49.959L1244.69,49.358L1244.68,48.757L1244.69,48.156L1244.68,47.555L1244.69,46.955L1244.68,46.354L1244.69,45.753L1244.68,45.151L1244.69,44.692L1245.13,44.685L1245.73,44.693L1246.33,44.685L1246.93,44.693L1247.53,44.685L1248.13,44.693L1248.74,44.685L1249.34,44.693L1249.94,44.685L1250.54,44.693L1251.14,44.685L1251.74,44.693L1252.34,44.685L1252.94,44.693L1253.54,44.685L1254.14,44.693L1254.74,44.685L1255.34,44.693L1255.94,44.685L1256.55,44.693L1257.15,44.685L1257.75,44.693L1258.35,44.685L1258.95,44.693L1259.55,44.685L1260.15,44.693L1260.75,44.685L1261.35,44.693L1261.95,44.685L1262.55,44.693L1263.15,44.685L1263.75,44.693L1264.36,44.685L1264.96,44.693L1265.56,44.685L1266.16,44.693L1266.76,44.685L1267.36,44.693L1267.96,44.685L1268.56,44.693L1269.16,44.685L1269.76,44.693L1270.36,44.685L1270.96,44.693L1271.56,44.685L1272.16,44.693L1272.77,44.685L1273.37,44.693L1273.97,44.685L1274.57,44.693L1275.17,44.685L1275.77,44.693L1276.37,44.685L1276.97,44.693L1277.57,44.685L1278.17,44.693L1278.77,44.685L1279.37,44.693L1279.98,44.685L1280.58,44.693L1281.18,44.685L1281.78,44.693L1282.38,44.685L1282.98,44.693L1283.31,44.691L1283.31,44.737L1283.32,45.337Z"
              style="fill:rgb(0,165,188);"/>
            </g>
          <g transform="matrix(-0.838375,0,0,0.665312,1315.71,295.559)">
                <path
                  d="M1307.33,42.333L1307.33,85.667C1307.33,97.625 1297.62,107.333 1285.67,107.333L1242.33,107.333C1230.38,107.333 1220.67,97.625 1220.67,85.667L1220.67,42.333C1220.67,30.375 1230.38,20.667 1242.33,20.667L1285.67,20.667C1297.62,20.667 1307.33,30.375 1307.33,42.333Z"
                  style="fill:rgb(0,165,188);"/>
            <path
              d="M1307.33,42.333C1307.33,30.375 1297.62,20.667 1285.67,20.667L1242.33,20.667C1230.38,20.667 1220.67,30.375 1220.67,42.333L1220.67,85.667C1220.67,97.625 1230.38,107.333 1242.33,107.333L1285.67,107.333C1297.62,107.333 1307.33,97.625 1307.33,85.667L1307.33,42.333ZM1283.32,45.337L1283.31,45.938L1283.32,46.539L1283.31,47.14L1283.32,47.74L1283.31,48.341L1283.32,48.942L1283.31,49.543L1283.32,50.144L1283.31,50.744L1283.32,51.345L1283.31,51.946L1283.32,52.547L1283.31,53.147L1283.32,53.748L1283.31,54.349L1283.32,54.95L1283.31,55.551L1283.32,56.151L1283.31,56.752L1283.32,57.353L1283.31,57.954L1283.32,58.554L1283.31,59.155L1283.32,59.756L1283.31,60.357L1283.32,60.957L1283.31,61.558L1283.32,62.159L1283.31,62.76L1283.32,63.361L1283.31,63.961L1283.32,64.562L1283.31,65.163L1283.32,65.764L1283.31,66.364L1283.32,66.965L1283.31,67.566L1283.32,68.167L1283.31,68.767L1283.32,69.368L1283.31,69.969L1283.32,70.57L1283.31,71.171L1283.32,71.771L1283.31,72.372L1283.32,72.973L1283.31,73.574L1283.32,74.174L1283.31,74.775L1283.32,75.376L1283.31,75.977L1283.32,76.578L1283.31,77.178L1283.32,77.779L1283.31,78.38L1283.32,78.98L1283.31,79.581L1283.32,80.182L1283.31,80.783L1283.32,81.384L1283.31,81.984L1283.32,82.585L1283.31,83.186L1283.31,83.311L1283.13,83.315L1282.53,83.307L1281.93,83.315L1281.33,83.307L1280.73,83.315L1280.13,83.307L1279.53,83.315L1278.93,83.307L1278.33,83.315L1277.73,83.307L1277.12,83.315L1276.52,83.307L1275.92,83.315L1275.32,83.307L1274.72,83.315L1274.12,83.307L1273.52,83.315L1272.92,83.307L1272.32,83.315L1271.72,83.307L1271.12,83.315L1270.52,83.307L1269.91,83.315L1269.31,83.307L1268.71,83.315L1268.11,83.307L1267.51,83.315L1266.91,83.307L1266.31,83.315L1265.71,83.307L1265.11,83.315L1264.51,83.307L1263.91,83.315L1263.31,83.307L1262.71,83.315L1262.11,83.307L1261.5,83.315L1260.9,83.307L1260.3,83.315L1259.7,83.307L1259.1,83.315L1258.5,83.307L1257.9,83.315L1257.3,83.307L1256.7,83.315L1256.1,83.307L1255.5,83.315L1254.9,83.307L1254.3,83.315L1253.69,83.307L1253.09,83.315L1252.49,83.307L1251.89,83.315L1251.29,83.307L1250.69,83.315L1250.09,83.307L1249.49,83.315L1248.89,83.307L1248.29,83.315L1247.69,83.307L1247.09,83.315L1246.49,83.307L1245.88,83.315L1245.28,83.307L1244.69,83.315L1244.69,83.001L1244.68,82.4L1244.69,81.8L1244.68,81.199L1244.69,80.598L1244.68,79.997L1244.69,79.396L1244.68,78.796L1244.69,78.195L1244.68,77.594L1244.69,76.993L1244.68,76.393L1244.69,75.792L1244.68,75.191L1244.69,74.59L1244.68,73.989L1244.69,73.389L1244.68,72.788L1244.69,72.187L1244.68,71.586L1244.69,70.986L1244.68,70.385L1244.69,69.784L1244.68,69.183L1244.69,68.582L1244.68,67.982L1244.69,67.381L1244.68,66.78L1244.69,66.179L1244.68,65.579L1244.69,64.978L1244.68,64.377L1244.69,63.776L1244.68,63.176L1244.69,62.575L1244.68,61.974L1244.69,61.373L1244.68,60.772L1244.69,60.172L1244.68,59.571L1244.69,58.97L1244.68,58.369L1244.69,57.769L1244.68,57.168L1244.69,56.567L1244.68,55.966L1244.69,55.366L1244.68,54.765L1244.69,54.164L1244.68,53.563L1244.69,52.962L1244.68,52.362L1244.69,51.761L1244.68,51.16L1244.69,50.559L1244.68,49.959L1244.69,49.358L1244.68,48.757L1244.69,48.156L1244.68,47.555L1244.69,46.955L1244.68,46.354L1244.69,45.753L1244.68,45.151L1244.69,44.692L1245.13,44.685L1245.73,44.693L1246.33,44.685L1246.93,44.693L1247.53,44.685L1248.13,44.693L1248.74,44.685L1249.34,44.693L1249.94,44.685L1250.54,44.693L1251.14,44.685L1251.74,44.693L1252.34,44.685L1252.94,44.693L1253.54,44.685L1254.14,44.693L1254.74,44.685L1255.34,44.693L1255.94,44.685L1256.55,44.693L1257.15,44.685L1257.75,44.693L1258.35,44.685L1258.95,44.693L1259.55,44.685L1260.15,44.693L1260.75,44.685L1261.35,44.693L1261.95,44.685L1262.55,44.693L1263.15,44.685L1263.75,44.693L1264.36,44.685L1264.96,44.693L1265.56,44.685L1266.16,44.693L1266.76,44.685L1267.36,44.693L1267.96,44.685L1268.56,44.693L1269.16,44.685L1269.76,44.693L1270.36,44.685L1270.96,44.693L1271.56,44.685L1272.16,44.693L1272.77,44.685L1273.37,44.693L1273.97,44.685L1274.57,44.693L1275.17,44.685L1275.77,44.693L1276.37,44.685L1276.97,44.693L1277.57,44.685L1278.17,44.693L1278.77,44.685L1279.37,44.693L1279.98,44.685L1280.58,44.693L1281.18,44.685L1281.78,44.693L1282.38,44.685L1282.98,44.693L1283.31,44.691L1283.31,44.737L1283.32,45.337Z"
              style="fill:rgb(0,165,188);"/>
            </g>
          <g transform="matrix(-0.838375,0,0,0.665312,1409.94,146.002)">
                <path
                  d="M1307.33,42.333L1307.33,85.667C1307.33,97.625 1297.62,107.333 1285.67,107.333L1242.33,107.333C1230.38,107.333 1220.67,97.625 1220.67,85.667L1220.67,42.333C1220.67,30.375 1230.38,20.667 1242.33,20.667L1285.67,20.667C1297.62,20.667 1307.33,30.375 1307.33,42.333Z"
                  style="fill:rgb(0,165,188);"/>
            <path
              d="M1307.33,42.333C1307.33,30.375 1297.62,20.667 1285.67,20.667L1242.33,20.667C1230.38,20.667 1220.67,30.375 1220.67,42.333L1220.67,85.667C1220.67,97.625 1230.38,107.333 1242.33,107.333L1285.67,107.333C1297.62,107.333 1307.33,97.625 1307.33,85.667L1307.33,42.333ZM1283.32,45.337L1283.31,45.938L1283.32,46.539L1283.31,47.14L1283.32,47.74L1283.31,48.341L1283.32,48.942L1283.31,49.543L1283.32,50.144L1283.31,50.744L1283.32,51.345L1283.31,51.946L1283.32,52.547L1283.31,53.147L1283.32,53.748L1283.31,54.349L1283.32,54.95L1283.31,55.551L1283.32,56.151L1283.31,56.752L1283.32,57.353L1283.31,57.954L1283.32,58.554L1283.31,59.155L1283.32,59.756L1283.31,60.357L1283.32,60.957L1283.31,61.558L1283.32,62.159L1283.31,62.76L1283.32,63.361L1283.31,63.961L1283.32,64.562L1283.31,65.163L1283.32,65.764L1283.31,66.364L1283.32,66.965L1283.31,67.566L1283.32,68.167L1283.31,68.767L1283.32,69.368L1283.31,69.969L1283.32,70.57L1283.31,71.171L1283.32,71.771L1283.31,72.372L1283.32,72.973L1283.31,73.574L1283.32,74.174L1283.31,74.775L1283.32,75.376L1283.31,75.977L1283.32,76.578L1283.31,77.178L1283.32,77.779L1283.31,78.38L1283.32,78.98L1283.31,79.581L1283.32,80.182L1283.31,80.783L1283.32,81.384L1283.31,81.984L1283.32,82.585L1283.31,83.186L1283.31,83.311L1283.13,83.315L1282.53,83.307L1281.93,83.315L1281.33,83.307L1280.73,83.315L1280.13,83.307L1279.53,83.315L1278.93,83.307L1278.33,83.315L1277.73,83.307L1277.12,83.315L1276.52,83.307L1275.92,83.315L1275.32,83.307L1274.72,83.315L1274.12,83.307L1273.52,83.315L1272.92,83.307L1272.32,83.315L1271.72,83.307L1271.12,83.315L1270.52,83.307L1269.91,83.315L1269.31,83.307L1268.71,83.315L1268.11,83.307L1267.51,83.315L1266.91,83.307L1266.31,83.315L1265.71,83.307L1265.11,83.315L1264.51,83.307L1263.91,83.315L1263.31,83.307L1262.71,83.315L1262.11,83.307L1261.5,83.315L1260.9,83.307L1260.3,83.315L1259.7,83.307L1259.1,83.315L1258.5,83.307L1257.9,83.315L1257.3,83.307L1256.7,83.315L1256.1,83.307L1255.5,83.315L1254.9,83.307L1254.3,83.315L1253.69,83.307L1253.09,83.315L1252.49,83.307L1251.89,83.315L1251.29,83.307L1250.69,83.315L1250.09,83.307L1249.49,83.315L1248.89,83.307L1248.29,83.315L1247.69,83.307L1247.09,83.315L1246.49,83.307L1245.88,83.315L1245.28,83.307L1244.69,83.315L1244.69,83.001L1244.68,82.4L1244.69,81.8L1244.68,81.199L1244.69,80.598L1244.68,79.997L1244.69,79.396L1244.68,78.796L1244.69,78.195L1244.68,77.594L1244.69,76.993L1244.68,76.393L1244.69,75.792L1244.68,75.191L1244.69,74.59L1244.68,73.989L1244.69,73.389L1244.68,72.788L1244.69,72.187L1244.68,71.586L1244.69,70.986L1244.68,70.385L1244.69,69.784L1244.68,69.183L1244.69,68.582L1244.68,67.982L1244.69,67.381L1244.68,66.78L1244.69,66.179L1244.68,65.579L1244.69,64.978L1244.68,64.377L1244.69,63.776L1244.68,63.176L1244.69,62.575L1244.68,61.974L1244.69,61.373L1244.68,60.772L1244.69,60.172L1244.68,59.571L1244.69,58.97L1244.68,58.369L1244.69,57.769L1244.68,57.168L1244.69,56.567L1244.68,55.966L1244.69,55.366L1244.68,54.765L1244.69,54.164L1244.68,53.563L1244.69,52.962L1244.68,52.362L1244.69,51.761L1244.68,51.16L1244.69,50.559L1244.68,49.959L1244.69,49.358L1244.68,48.757L1244.69,48.156L1244.68,47.555L1244.69,46.955L1244.68,46.354L1244.69,45.753L1244.68,45.151L1244.69,44.692L1245.13,44.685L1245.73,44.693L1246.33,44.685L1246.93,44.693L1247.53,44.685L1248.13,44.693L1248.74,44.685L1249.34,44.693L1249.94,44.685L1250.54,44.693L1251.14,44.685L1251.74,44.693L1252.34,44.685L1252.94,44.693L1253.54,44.685L1254.14,44.693L1254.74,44.685L1255.34,44.693L1255.94,44.685L1256.55,44.693L1257.15,44.685L1257.75,44.693L1258.35,44.685L1258.95,44.693L1259.55,44.685L1260.15,44.693L1260.75,44.685L1261.35,44.693L1261.95,44.685L1262.55,44.693L1263.15,44.685L1263.75,44.693L1264.36,44.685L1264.96,44.693L1265.56,44.685L1266.16,44.693L1266.76,44.685L1267.36,44.693L1267.96,44.685L1268.56,44.693L1269.16,44.685L1269.76,44.693L1270.36,44.685L1270.96,44.693L1271.56,44.685L1272.16,44.693L1272.77,44.685L1273.37,44.693L1273.97,44.685L1274.57,44.693L1275.17,44.685L1275.77,44.693L1276.37,44.685L1276.97,44.693L1277.57,44.685L1278.17,44.693L1278.77,44.685L1279.37,44.693L1279.98,44.685L1280.58,44.693L1281.18,44.685L1281.78,44.693L1282.38,44.685L1282.98,44.693L1283.31,44.691L1283.31,44.737L1283.32,45.337Z"
              style="fill:rgb(0,165,188);"/>
            </g>
          <g transform="matrix(-0.838375,0,0,0.665312,1409.94,220.78)">
                <path
                  d="M1307.33,42.333L1307.33,85.667C1307.33,97.625 1297.62,107.333 1285.67,107.333L1242.33,107.333C1230.38,107.333 1220.67,97.625 1220.67,85.667L1220.67,42.333C1220.67,30.375 1230.38,20.667 1242.33,20.667L1285.67,20.667C1297.62,20.667 1307.33,30.375 1307.33,42.333Z"
                  style="fill:rgb(0,165,188);"/>
            <path
              d="M1307.33,42.333C1307.33,30.375 1297.62,20.667 1285.67,20.667L1242.33,20.667C1230.38,20.667 1220.67,30.375 1220.67,42.333L1220.67,85.667C1220.67,97.625 1230.38,107.333 1242.33,107.333L1285.67,107.333C1297.62,107.333 1307.33,97.625 1307.33,85.667L1307.33,42.333ZM1283.32,45.337L1283.31,45.938L1283.32,46.539L1283.31,47.14L1283.32,47.74L1283.31,48.341L1283.32,48.942L1283.31,49.543L1283.32,50.144L1283.31,50.744L1283.32,51.345L1283.31,51.946L1283.32,52.547L1283.31,53.147L1283.32,53.748L1283.31,54.349L1283.32,54.95L1283.31,55.551L1283.32,56.151L1283.31,56.752L1283.32,57.353L1283.31,57.954L1283.32,58.554L1283.31,59.155L1283.32,59.756L1283.31,60.357L1283.32,60.957L1283.31,61.558L1283.32,62.159L1283.31,62.76L1283.32,63.361L1283.31,63.961L1283.32,64.562L1283.31,65.163L1283.32,65.764L1283.31,66.364L1283.32,66.965L1283.31,67.566L1283.32,68.167L1283.31,68.767L1283.32,69.368L1283.31,69.969L1283.32,70.57L1283.31,71.171L1283.32,71.771L1283.31,72.372L1283.32,72.973L1283.31,73.574L1283.32,74.174L1283.31,74.775L1283.32,75.376L1283.31,75.977L1283.32,76.578L1283.31,77.178L1283.32,77.779L1283.31,78.38L1283.32,78.98L1283.31,79.581L1283.32,80.182L1283.31,80.783L1283.32,81.384L1283.31,81.984L1283.32,82.585L1283.31,83.186L1283.31,83.311L1283.13,83.315L1282.53,83.307L1281.93,83.315L1281.33,83.307L1280.73,83.315L1280.13,83.307L1279.53,83.315L1278.93,83.307L1278.33,83.315L1277.73,83.307L1277.12,83.315L1276.52,83.307L1275.92,83.315L1275.32,83.307L1274.72,83.315L1274.12,83.307L1273.52,83.315L1272.92,83.307L1272.32,83.315L1271.72,83.307L1271.12,83.315L1270.52,83.307L1269.91,83.315L1269.31,83.307L1268.71,83.315L1268.11,83.307L1267.51,83.315L1266.91,83.307L1266.31,83.315L1265.71,83.307L1265.11,83.315L1264.51,83.307L1263.91,83.315L1263.31,83.307L1262.71,83.315L1262.11,83.307L1261.5,83.315L1260.9,83.307L1260.3,83.315L1259.7,83.307L1259.1,83.315L1258.5,83.307L1257.9,83.315L1257.3,83.307L1256.7,83.315L1256.1,83.307L1255.5,83.315L1254.9,83.307L1254.3,83.315L1253.69,83.307L1253.09,83.315L1252.49,83.307L1251.89,83.315L1251.29,83.307L1250.69,83.315L1250.09,83.307L1249.49,83.315L1248.89,83.307L1248.29,83.315L1247.69,83.307L1247.09,83.315L1246.49,83.307L1245.88,83.315L1245.28,83.307L1244.69,83.315L1244.69,83.001L1244.68,82.4L1244.69,81.8L1244.68,81.199L1244.69,80.598L1244.68,79.997L1244.69,79.396L1244.68,78.796L1244.69,78.195L1244.68,77.594L1244.69,76.993L1244.68,76.393L1244.69,75.792L1244.68,75.191L1244.69,74.59L1244.68,73.989L1244.69,73.389L1244.68,72.788L1244.69,72.187L1244.68,71.586L1244.69,70.986L1244.68,70.385L1244.69,69.784L1244.68,69.183L1244.69,68.582L1244.68,67.982L1244.69,67.381L1244.68,66.78L1244.69,66.179L1244.68,65.579L1244.69,64.978L1244.68,64.377L1244.69,63.776L1244.68,63.176L1244.69,62.575L1244.68,61.974L1244.69,61.373L1244.68,60.772L1244.69,60.172L1244.68,59.571L1244.69,58.97L1244.68,58.369L1244.69,57.769L1244.68,57.168L1244.69,56.567L1244.68,55.966L1244.69,55.366L1244.68,54.765L1244.69,54.164L1244.68,53.563L1244.69,52.962L1244.68,52.362L1244.69,51.761L1244.68,51.16L1244.69,50.559L1244.68,49.959L1244.69,49.358L1244.68,48.757L1244.69,48.156L1244.68,47.555L1244.69,46.955L1244.68,46.354L1244.69,45.753L1244.68,45.151L1244.69,44.692L1245.13,44.685L1245.73,44.693L1246.33,44.685L1246.93,44.693L1247.53,44.685L1248.13,44.693L1248.74,44.685L1249.34,44.693L1249.94,44.685L1250.54,44.693L1251.14,44.685L1251.74,44.693L1252.34,44.685L1252.94,44.693L1253.54,44.685L1254.14,44.693L1254.74,44.685L1255.34,44.693L1255.94,44.685L1256.55,44.693L1257.15,44.685L1257.75,44.693L1258.35,44.685L1258.95,44.693L1259.55,44.685L1260.15,44.693L1260.75,44.685L1261.35,44.693L1261.95,44.685L1262.55,44.693L1263.15,44.685L1263.75,44.693L1264.36,44.685L1264.96,44.693L1265.56,44.685L1266.16,44.693L1266.76,44.685L1267.36,44.693L1267.96,44.685L1268.56,44.693L1269.16,44.685L1269.76,44.693L1270.36,44.685L1270.96,44.693L1271.56,44.685L1272.16,44.693L1272.77,44.685L1273.37,44.693L1273.97,44.685L1274.57,44.693L1275.17,44.685L1275.77,44.693L1276.37,44.685L1276.97,44.693L1277.57,44.685L1278.17,44.693L1278.77,44.685L1279.37,44.693L1279.98,44.685L1280.58,44.693L1281.18,44.685L1281.78,44.693L1282.38,44.685L1282.98,44.693L1283.31,44.691L1283.31,44.737L1283.32,45.337Z"
              style="fill:rgb(0,165,188);"/>
            </g>
          <g transform="matrix(-0.838375,0,0,0.665312,1409.94,295.559)">
                <path
                  d="M1307.33,42.333L1307.33,85.667C1307.33,97.625 1297.62,107.333 1285.67,107.333L1242.33,107.333C1230.38,107.333 1220.67,97.625 1220.67,85.667L1220.67,42.333C1220.67,30.375 1230.38,20.667 1242.33,20.667L1285.67,20.667C1297.62,20.667 1307.33,30.375 1307.33,42.333Z"
                  style="fill:rgb(0,165,188);"/>
            <path
              d="M1307.33,42.333C1307.33,30.375 1297.62,20.667 1285.67,20.667L1242.33,20.667C1230.38,20.667 1220.67,30.375 1220.67,42.333L1220.67,85.667C1220.67,97.625 1230.38,107.333 1242.33,107.333L1285.67,107.333C1297.62,107.333 1307.33,97.625 1307.33,85.667L1307.33,42.333ZM1283.32,45.337L1283.31,45.938L1283.32,46.539L1283.31,47.14L1283.32,47.74L1283.31,48.341L1283.32,48.942L1283.31,49.543L1283.32,50.144L1283.31,50.744L1283.32,51.345L1283.31,51.946L1283.32,52.547L1283.31,53.147L1283.32,53.748L1283.31,54.349L1283.32,54.95L1283.31,55.551L1283.32,56.151L1283.31,56.752L1283.32,57.353L1283.31,57.954L1283.32,58.554L1283.31,59.155L1283.32,59.756L1283.31,60.357L1283.32,60.957L1283.31,61.558L1283.32,62.159L1283.31,62.76L1283.32,63.361L1283.31,63.961L1283.32,64.562L1283.31,65.163L1283.32,65.764L1283.31,66.364L1283.32,66.965L1283.31,67.566L1283.32,68.167L1283.31,68.767L1283.32,69.368L1283.31,69.969L1283.32,70.57L1283.31,71.171L1283.32,71.771L1283.31,72.372L1283.32,72.973L1283.31,73.574L1283.32,74.174L1283.31,74.775L1283.32,75.376L1283.31,75.977L1283.32,76.578L1283.31,77.178L1283.32,77.779L1283.31,78.38L1283.32,78.98L1283.31,79.581L1283.32,80.182L1283.31,80.783L1283.32,81.384L1283.31,81.984L1283.32,82.585L1283.31,83.186L1283.31,83.311L1283.13,83.315L1282.53,83.307L1281.93,83.315L1281.33,83.307L1280.73,83.315L1280.13,83.307L1279.53,83.315L1278.93,83.307L1278.33,83.315L1277.73,83.307L1277.12,83.315L1276.52,83.307L1275.92,83.315L1275.32,83.307L1274.72,83.315L1274.12,83.307L1273.52,83.315L1272.92,83.307L1272.32,83.315L1271.72,83.307L1271.12,83.315L1270.52,83.307L1269.91,83.315L1269.31,83.307L1268.71,83.315L1268.11,83.307L1267.51,83.315L1266.91,83.307L1266.31,83.315L1265.71,83.307L1265.11,83.315L1264.51,83.307L1263.91,83.315L1263.31,83.307L1262.71,83.315L1262.11,83.307L1261.5,83.315L1260.9,83.307L1260.3,83.315L1259.7,83.307L1259.1,83.315L1258.5,83.307L1257.9,83.315L1257.3,83.307L1256.7,83.315L1256.1,83.307L1255.5,83.315L1254.9,83.307L1254.3,83.315L1253.69,83.307L1253.09,83.315L1252.49,83.307L1251.89,83.315L1251.29,83.307L1250.69,83.315L1250.09,83.307L1249.49,83.315L1248.89,83.307L1248.29,83.315L1247.69,83.307L1247.09,83.315L1246.49,83.307L1245.88,83.315L1245.28,83.307L1244.69,83.315L1244.69,83.001L1244.68,82.4L1244.69,81.8L1244.68,81.199L1244.69,80.598L1244.68,79.997L1244.69,79.396L1244.68,78.796L1244.69,78.195L1244.68,77.594L1244.69,76.993L1244.68,76.393L1244.69,75.792L1244.68,75.191L1244.69,74.59L1244.68,73.989L1244.69,73.389L1244.68,72.788L1244.69,72.187L1244.68,71.586L1244.69,70.986L1244.68,70.385L1244.69,69.784L1244.68,69.183L1244.69,68.582L1244.68,67.982L1244.69,67.381L1244.68,66.78L1244.69,66.179L1244.68,65.579L1244.69,64.978L1244.68,64.377L1244.69,63.776L1244.68,63.176L1244.69,62.575L1244.68,61.974L1244.69,61.373L1244.68,60.772L1244.69,60.172L1244.68,59.571L1244.69,58.97L1244.68,58.369L1244.69,57.769L1244.68,57.168L1244.69,56.567L1244.68,55.966L1244.69,55.366L1244.68,54.765L1244.69,54.164L1244.68,53.563L1244.69,52.962L1244.68,52.362L1244.69,51.761L1244.68,51.16L1244.69,50.559L1244.68,49.959L1244.69,49.358L1244.68,48.757L1244.69,48.156L1244.68,47.555L1244.69,46.955L1244.68,46.354L1244.69,45.753L1244.68,45.151L1244.69,44.692L1245.13,44.685L1245.73,44.693L1246.33,44.685L1246.93,44.693L1247.53,44.685L1248.13,44.693L1248.74,44.685L1249.34,44.693L1249.94,44.685L1250.54,44.693L1251.14,44.685L1251.74,44.693L1252.34,44.685L1252.94,44.693L1253.54,44.685L1254.14,44.693L1254.74,44.685L1255.34,44.693L1255.94,44.685L1256.55,44.693L1257.15,44.685L1257.75,44.693L1258.35,44.685L1258.95,44.693L1259.55,44.685L1260.15,44.693L1260.75,44.685L1261.35,44.693L1261.95,44.685L1262.55,44.693L1263.15,44.685L1263.75,44.693L1264.36,44.685L1264.96,44.693L1265.56,44.685L1266.16,44.693L1266.76,44.685L1267.36,44.693L1267.96,44.685L1268.56,44.693L1269.16,44.685L1269.76,44.693L1270.36,44.685L1270.96,44.693L1271.56,44.685L1272.16,44.693L1272.77,44.685L1273.37,44.693L1273.97,44.685L1274.57,44.693L1275.17,44.685L1275.77,44.693L1276.37,44.685L1276.97,44.693L1277.57,44.685L1278.17,44.693L1278.77,44.685L1279.37,44.693L1279.98,44.685L1280.58,44.693L1281.18,44.685L1281.78,44.693L1282.38,44.685L1282.98,44.693L1283.31,44.691L1283.31,44.737L1283.32,45.337Z"
              style="fill:rgb(0,165,188);"/>
            </g>
        </g>
    </g>
</svg>
