<svg viewBox="0 0 534 534" xmlns="http://www.w3.org/2000/svg" xml:space="preserve"
  style="fill-rule:evenodd;clip-rule:evenodd;stroke-linecap:round;stroke-linejoin:round;stroke-miterlimit:1">
    <path style="fill:none" d="M0 0h533.333v533.333H0z"/>
  <path d="M326.563 27.083v152.462h152.462V506.25H54.309V27.083h272.254Z" style="fill:#fff;stroke:#1e4847;stroke-width:20.83px"/>
  <path
    d="M138.707 84.336v16.177a5.526 5.526 0 0 1-5.524 5.524h-16.177a5.526 5.526 0 0 1-5.524-5.524V84.336a5.526 5.526 0 0 1 5.524-5.524h16.177a5.526 5.526 0 0 1 5.524 5.524ZM138.707 138.786v16.178a5.527 5.527 0 0 1-5.524 5.524h-16.177a5.527 5.527 0 0 1-5.524-5.524v-16.178a5.527 5.527 0 0 1 5.524-5.524h16.177a5.527 5.527 0 0 1 5.524 5.524ZM138.707 193.237v16.177a5.526 5.526 0 0 1-5.524 5.524h-16.177a5.526 5.526 0 0 1-5.524-5.524v-16.177a5.526 5.526 0 0 1 5.524-5.524h16.177a5.526 5.526 0 0 1 5.524 5.524ZM138.707 247.688v16.177a5.526 5.526 0 0 1-5.524 5.524h-16.177a5.526 5.526 0 0 1-5.524-5.524v-16.177a5.526 5.526 0 0 1 5.524-5.524h16.177a5.526 5.526 0 0 1 5.524 5.524ZM138.707 302.139v16.177a5.526 5.526 0 0 1-5.524 5.524h-16.177a5.526 5.526 0 0 1-5.524-5.524v-16.177a5.526 5.526 0 0 1 5.524-5.524h16.177a5.526 5.526 0 0 1 5.524 5.524ZM165.933 111.561v16.177a5.526 5.526 0 0 1-5.524 5.524h-16.178a5.527 5.527 0 0 1-5.524-5.524v-16.177a5.527 5.527 0 0 1 5.524-5.524h16.178a5.526 5.526 0 0 1 5.524 5.524ZM165.933 166.012v16.177a5.526 5.526 0 0 1-5.524 5.524h-16.178a5.527 5.527 0 0 1-5.524-5.524v-16.177a5.527 5.527 0 0 1 5.524-5.524h16.178a5.526 5.526 0 0 1 5.524 5.524ZM165.933 220.462v16.178a5.526 5.526 0 0 1-5.524 5.524h-16.178a5.527 5.527 0 0 1-5.524-5.524v-16.178a5.528 5.528 0 0 1 5.524-5.524h16.178a5.527 5.527 0 0 1 5.524 5.524ZM165.933 274.913v16.178a5.527 5.527 0 0 1-5.524 5.524h-16.178a5.528 5.528 0 0 1-5.524-5.524v-16.178a5.527 5.527 0 0 1 5.524-5.524h16.178a5.526 5.526 0 0 1 5.524 5.524Z"
    style="fill:#1e4847"/>
  <path
    d="M165.933 348.501v32.354c0 6.098-4.951 11.048-11.048 11.048H122.53c-6.098 0-11.048-4.95-11.048-11.048v-32.354c0-6.098 4.95-11.048 11.048-11.048h32.355c6.097 0 11.048 4.95 11.048 11.048Z"
    style="fill:none;stroke:#1e4847;stroke-width:12.5px"/>
  <path d="m326.563 27.083 152.462 152.462H326.563V27.083Z" style="fill:#fff;stroke:#1e4847;stroke-width:20.83px"/>
</svg>
