<?xml version="1.0" encoding="UTF-8" standalone="no"?>
<!DOCTYPE svg PUBLIC "-//W3C//DTD SVG 1.1//EN" "http://www.w3.org/Graphics/SVG/1.1/DTD/svg11.dtd">
<svg width="100%" height="100%" viewBox="0 0 128 128" version="1.1" xmlns="http://www.w3.org/2000/svg"
  xml:space="preserve"
  style="fill-rule:evenodd;clip-rule:evenodd;stroke-linecap:round;stroke-linejoin:round;stroke-miterlimit:1;">
    <g transform="matrix(1,0,0,1,-8000,-200)">
        <g id="asset_sound-dark" transform="matrix(0.248227,0,0,0.312796,8000.45,199.973)">
            <rect x="-1.829" y="0.088" width="515.658" height="409.212" style="fill:none;"/>
          <g transform="matrix(1.30682,0,0,1.30682,-62.7516,-54.4481)">
                <g transform="matrix(3.78384,0,0,3.05797,-2902.39,2.58989)">
                    <path d="M843.222,18L843.222,47.273L873.033,47.273L873.033,110L789.988,110L789.988,18L843.222,18Z"
                      style="fill:white;stroke:rgb(0,165,188);stroke-width:4.04px;"/>
                </g>
            <g transform="matrix(4.02858,0,0,3.19697,-3095.78,0.0879151)">
                    <path d="M840,18L868,46L840,46L840,18Z" style="fill:white;stroke:rgb(0,165,188);stroke-width:3.83px;"/>
                </g>
            </g>
          <g transform="matrix(-0.259886,0,0,0.618714,426.831,220.267)">
                <path
                  d="M1307.33,27.889L1307.33,100.111C1307.33,104.097 1297.62,107.333 1285.67,107.333L1242.33,107.333C1230.38,107.333 1220.67,104.097 1220.67,100.111L1220.67,27.889C1220.67,23.903 1230.38,20.667 1242.33,20.667L1285.67,20.667C1297.62,20.667 1307.33,23.903 1307.33,27.889Z"
                  style="fill:rgb(0,165,188);"/>
            <path
              d="M1307.33,27.889C1307.33,23.903 1297.62,20.667 1285.67,20.667L1242.33,20.667C1230.38,20.667 1220.67,23.903 1220.67,27.889L1220.67,100.111C1220.67,104.097 1230.38,107.333 1242.33,107.333L1285.67,107.333C1297.62,107.333 1307.33,104.097 1307.33,100.111L1307.33,27.889Z"
              style="fill:rgb(0,165,188);"/>
            </g>
          <g transform="matrix(-0.259886,0,0,0.412476,471.878,233.466)">
                <path
                  d="M1307.33,31.5L1307.33,96.5C1307.33,102.479 1297.62,107.333 1285.67,107.333L1242.33,107.333C1230.38,107.333 1220.67,102.479 1220.67,96.5L1220.67,31.5C1220.67,25.521 1230.38,20.667 1242.33,20.667L1285.67,20.667C1297.62,20.667 1307.33,25.521 1307.33,31.5Z"
                  style="fill:rgb(0,165,188);"/>
            <path
              d="M1307.33,31.5C1307.33,25.521 1297.62,20.667 1285.67,20.667L1242.33,20.667C1230.38,20.667 1220.67,25.521 1220.67,31.5L1220.67,96.5C1220.67,102.479 1230.38,107.333 1242.33,107.333L1285.67,107.333C1297.62,107.333 1307.33,102.479 1307.33,96.5L1307.33,31.5Z"
              style="fill:rgb(0,165,188);"/>
            </g>
          <g transform="matrix(-0.259886,0,0,0.412476,742.159,233.466)">
                <path
                  d="M1307.33,31.5L1307.33,96.5C1307.33,102.479 1297.62,107.333 1285.67,107.333L1242.33,107.333C1230.38,107.333 1220.67,102.479 1220.67,96.5L1220.67,31.5C1220.67,25.521 1230.38,20.667 1242.33,20.667L1285.67,20.667C1297.62,20.667 1307.33,25.521 1307.33,31.5Z"
                  style="fill:rgb(0,165,188);"/>
            <path
              d="M1307.33,31.5C1307.33,25.521 1297.62,20.667 1285.67,20.667L1242.33,20.667C1230.38,20.667 1220.67,25.521 1220.67,31.5L1220.67,96.5C1220.67,102.479 1230.38,107.333 1242.33,107.333L1285.67,107.333C1297.62,107.333 1307.33,102.479 1307.33,96.5L1307.33,31.5Z"
              style="fill:rgb(0,165,188);"/>
            </g>
          <g transform="matrix(-0.259886,0,0,0.824952,516.925,207.067)">
                <path
                  d="M1307.33,26.083L1307.33,101.917C1307.33,104.906 1297.62,107.333 1285.67,107.333L1242.33,107.333C1230.38,107.333 1220.67,104.906 1220.67,101.917L1220.67,26.083C1220.67,23.094 1230.38,20.667 1242.33,20.667L1285.67,20.667C1297.62,20.667 1307.33,23.094 1307.33,26.083Z"
                  style="fill:rgb(0,165,188);"/>
            <path
              d="M1307.33,26.083C1307.33,23.094 1297.62,20.667 1285.67,20.667L1242.33,20.667C1230.38,20.667 1220.67,23.094 1220.67,26.083L1220.67,101.917C1220.67,104.906 1230.38,107.333 1242.33,107.333L1285.67,107.333C1297.62,107.333 1307.33,104.906 1307.33,101.917L1307.33,26.083Z"
              style="fill:rgb(0,165,188);"/>
            </g>
          <g transform="matrix(-0.259886,0,0,0.824952,697.112,207.067)">
                <path
                  d="M1307.33,26.083L1307.33,101.917C1307.33,104.906 1297.62,107.333 1285.67,107.333L1242.33,107.333C1230.38,107.333 1220.67,104.906 1220.67,101.917L1220.67,26.083C1220.67,23.094 1230.38,20.667 1242.33,20.667L1285.67,20.667C1297.62,20.667 1307.33,23.094 1307.33,26.083Z"
                  style="fill:rgb(0,165,188);"/>
            <path
              d="M1307.33,26.083C1307.33,23.094 1297.62,20.667 1285.67,20.667L1242.33,20.667C1230.38,20.667 1220.67,23.094 1220.67,26.083L1220.67,101.917C1220.67,104.906 1230.38,107.333 1242.33,107.333L1285.67,107.333C1297.62,107.333 1307.33,104.906 1307.33,101.917L1307.33,26.083Z"
              style="fill:rgb(0,165,188);"/>
            </g>
          <g transform="matrix(-0.259886,0,0,1.6499,561.972,154.27)">
                <path
                  d="M1307.33,23.375L1307.33,104.625C1307.33,106.12 1297.62,107.333 1285.67,107.333L1242.33,107.333C1230.38,107.333 1220.67,106.12 1220.67,104.625L1220.67,23.375C1220.67,21.88 1230.38,20.667 1242.33,20.667L1285.67,20.667C1297.62,20.667 1307.33,21.88 1307.33,23.375Z"
                  style="fill:rgb(0,165,188);"/>
            <path
              d="M1307.33,23.375C1307.33,21.88 1297.62,20.667 1285.67,20.667L1242.33,20.667C1230.38,20.667 1220.67,21.88 1220.67,23.375L1220.67,104.625C1220.67,106.12 1230.38,107.333 1242.33,107.333L1285.67,107.333C1297.62,107.333 1307.33,106.12 1307.33,104.625L1307.33,23.375Z"
              style="fill:rgb(0,165,188);"/>
            </g>
          <g transform="matrix(-0.259886,0,0,1.23743,652.066,180.669)">
                <path
                  d="M1307.33,24.278L1307.33,103.722C1307.33,105.715 1297.62,107.333 1285.67,107.333L1242.33,107.333C1230.38,107.333 1220.67,105.715 1220.67,103.722L1220.67,24.278C1220.67,22.285 1230.38,20.667 1242.33,20.667L1285.67,20.667C1297.62,20.667 1307.33,22.285 1307.33,24.278Z"
                  style="fill:rgb(0,165,188);"/>
            <path
              d="M1307.33,24.278C1307.33,22.285 1297.62,20.667 1285.67,20.667L1242.33,20.667C1230.38,20.667 1220.67,22.285 1220.67,24.278L1220.67,103.722C1220.67,105.715 1230.38,107.333 1242.33,107.333L1285.67,107.333C1297.62,107.333 1307.33,105.715 1307.33,103.722L1307.33,24.278Z"
              style="fill:rgb(0,165,188);"/>
            </g>
          <g transform="matrix(-0.259886,0,0,1.85614,607.019,141.071)">
                <path
                  d="M1307.33,23.074L1307.33,104.926C1307.33,106.255 1297.62,107.333 1285.67,107.333L1242.33,107.333C1230.38,107.333 1220.67,106.255 1220.67,104.926L1220.67,23.074C1220.67,21.745 1230.38,20.667 1242.33,20.667L1285.67,20.667C1297.62,20.667 1307.33,21.745 1307.33,23.074Z"
                  style="fill:rgb(0,165,188);"/>
            <path
              d="M1307.33,23.074C1307.33,21.745 1297.62,20.667 1285.67,20.667L1242.33,20.667C1230.38,20.667 1220.67,21.745 1220.67,23.074L1220.67,104.926C1220.67,106.255 1230.38,107.333 1242.33,107.333L1285.67,107.333C1297.62,107.333 1307.33,106.255 1307.33,104.926L1307.33,23.074Z"
              style="fill:rgb(0,165,188);"/>
            </g>
        </g>
    </g>
</svg>
