<?xml version="1.0" encoding="UTF-8" standalone="no"?><!DOCTYPE svg PUBLIC "-//W3C//DTD SVG 1.1//EN"
  "http://www.w3.org/Graphics/SVG/1.1/DTD/svg11.dtd">
<svg width="100%" height="100%" viewBox="0 0 534 538" version="1.1" xmlns="http://www.w3.org/2000/svg" xmlns:xlink="http://www.w3.org/1999/xlink"
  xml:space="preserve" xmlns:serif="http://www.serif.com/"
  style="fill-rule:evenodd;clip-rule:evenodd;stroke-linecap:round;stroke-linejoin:round;stroke-miterlimit:1;"><rect id="bulb-dark" x="0" y="4.093" width="533.333" height="533.333" style="fill:none;"/>
  <path
    d="M266.667,31.176c93.98,0 170.28,76.301 170.28,170.281c0,93.981 -62.828,107.802 -82.406,135.532c-30.84,43.68 -30.388,49.911 -87.874,49.911c-57.486,-0 -58.58,-6.231 -89.42,-49.911c-19.579,-27.73 -80.861,-41.551 -80.861,-135.532c-0,-93.98 76.3,-170.281 170.281,-170.281Z"
    style="fill:#eeebd3;stroke:#f7c548;stroke-width:20.83px;"/>
  <path
    d="M290.799,254.171l0,-23.686c0,-11.427 9.472,-20.73 21.116,-20.73c11.644,0 21.116,10.776 21.116,22.202c-0,11.427 -9.472,22.214 -21.116,22.214l-21.116,0Zm-48.265,132.729l0,-132.729l48.265,0l0,132.729m-48.265,-132.729l-21.116,0c-11.644,0 -21.116,-10.775 -21.116,-22.202c0,-11.426 9.472,-21.466 21.116,-21.466c11.644,0 21.116,8.555 21.116,19.982l0,23.686Z"
    style="fill:none;stroke:#0e7c7b;stroke-width:20.83px;stroke-linecap:butt;stroke-miterlimit:2;"/>
  <path
    d="M334.779,402.924c-2.27,17.903 -13.622,76.233 -13.622,76.233c-0,17.212 -31.935,31.186 -54.49,31.186c-22.556,-0 -54.49,-13.974 -54.49,-31.186c-0,-0 -11.352,-58.33 -13.623,-76.233c-1.293,-10.197 -22.555,-31.186 0,-31.186c0,-0 45.409,9.926 68.113,9.926c22.704,-0 68.112,-9.926 68.112,-9.926c22.555,-0 1.293,20.989 -0,31.186Z"
    style="fill:#4e8fa6;stroke:#00a5bc;stroke-width:20.83px;"/>
  <path d="M230.729,422.709c0,0 23.958,3.953 35.938,3.953c11.979,-0 35.937,-3.953 35.937,-3.953"
    style="fill:#4e8fa6;stroke:#0e7c7b;stroke-width:20.83px;"/>
  <path d="M237.917,460.845c-0,0 19.166,3.162 28.75,3.162c9.583,0 28.75,-3.162 28.75,-3.162"
    style="fill:#4e8fa6;stroke:#0e7c7b;stroke-width:20.83px;"/></svg>
