<svg viewBox="0 0 534 534" xmlns="http://www.w3.org/2000/svg" xml:space="preserve"
  style="fill-rule:evenodd;clip-rule:evenodd;stroke-linecap:round;stroke-linejoin:round;stroke-miterlimit:1">
    <path style="fill:none" d="M0 0h533.333v533.333H0z"/>
  <path
    d="M266.667 27.083c93.98 0 170.28 76.301 170.28 170.281 0 93.981-62.828 107.802-82.406 135.532-30.84 43.68-30.388 49.911-87.874 49.911-57.486 0-58.58-6.231-89.42-49.911-19.579-27.73-80.861-41.551-80.861-135.532 0-93.98 76.3-170.281 170.281-170.281Z"
    style="fill:#eeebd3;stroke:#f7c548;stroke-width:20.83px"/>
  <path
    d="M290.799 250.078v-23.686c0-11.427 9.472-20.73 21.116-20.73s21.116 10.776 21.116 22.202c0 11.427-9.472 22.214-21.116 22.214h-21.116Zm-48.265 132.729V250.078h48.265v132.729m-48.265-132.729h-21.116c-11.644 0-21.116-10.775-21.116-22.202 0-11.426 9.472-21.465 21.116-21.465s21.116 8.554 21.116 19.981v23.686Z"
    style="fill:none;stroke:#fff;stroke-width:20.83px;stroke-linecap:butt;stroke-miterlimit:2"/>
  <path
    d="M334.779 398.831c-2.27 17.903-13.622 76.233-13.622 76.233 0 17.212-31.935 31.186-54.49 31.186-22.556 0-54.49-13.974-54.49-31.186 0 0-11.352-58.33-13.623-76.233-1.293-10.197-22.555-31.186 0-31.186 0 0 45.409 9.926 68.113 9.926s68.112-9.926 68.112-9.926c22.555 0 1.293 20.989 0 31.186Z"
    style="fill:#4e8fa6;stroke:#1e4847;stroke-width:20.83px"/>
  <path
    d="M230.729 418.616s23.958 3.953 35.938 3.953c11.979 0 35.937-3.953 35.937-3.953M237.917 456.752s19.166 3.162 28.75 3.162c9.583 0 28.75-3.162 28.75-3.162"
    style="fill:#4e8fa6;stroke:#0e7c7b;stroke-width:20.83px"/>
</svg>
