<svg viewBox="0 0 534 534" xmlns="http://www.w3.org/2000/svg" xml:space="preserve"
  style="fill-rule:evenodd;clip-rule:evenodd;stroke-linecap:round;stroke-linejoin:round;stroke-miterlimit:1">
    <path style="fill:none" d="M0 0h533.333v533.333H0z"/>
  <path style="fill:#d62246;fill-opacity:.2;stroke:#d62246;stroke-opacity:.2;stroke-width:20.83px;stroke-dasharray:0,1.04,0,0,0,0"
    d="M27.083 27.083H506.25V506.25H27.083z"/>
  <path
    d="M466.32 47.917c-11.499 0-20.834-9.335-20.834-20.834 0-11.498 9.335-20.833 20.834-20.833h39.93c11.506 0 20.833 9.327 20.833 20.833v39.931c0 11.498-9.335 20.833-20.833 20.833-11.498 0-20.833-9.335-20.833-20.833V47.917H466.32Zm19.097 98.958c0-11.498 9.335-20.833 20.833-20.833 11.498 0 20.833 9.335 20.833 20.833v79.862c0 11.498-9.335 20.833-20.833 20.833-11.498 0-20.833-9.335-20.833-20.833v-79.862Zm0 159.722c0-11.498 9.335-20.833 20.833-20.833 11.498 0 20.833 9.335 20.833 20.833v79.862c0 11.498-9.335 20.833-20.833 20.833-11.498 0-20.833-9.335-20.833-20.833v-79.862Zm0 159.723c0-11.499 9.335-20.834 20.833-20.834 11.498 0 20.833 9.335 20.833 20.834v39.93c0 11.506-9.327 20.833-20.833 20.833h-39.93c-11.499 0-20.834-9.335-20.834-20.833 0-11.498 9.335-20.833 20.834-20.833h19.097V466.32Zm-98.959 19.097c11.498 0 20.833 9.335 20.833 20.833 0 11.498-9.335 20.833-20.833 20.833h-79.861c-11.498 0-20.834-9.335-20.834-20.833 0-11.498 9.336-20.833 20.834-20.833h79.861Zm-159.722 0c11.498 0 20.833 9.335 20.833 20.833 0 11.498-9.335 20.833-20.833 20.833h-79.861c-11.498 0-20.834-9.335-20.834-20.833 0-11.498 9.336-20.833 20.834-20.833h79.861Zm-159.722 0c11.498 0 20.833 9.335 20.833 20.833 0 11.498-9.335 20.833-20.833 20.833H27.083c-11.506 0-20.833-9.327-20.833-20.833v-39.93c0-11.499 9.335-20.834 20.833-20.834 11.499 0 20.834 9.335 20.834 20.834v19.097h19.097Zm-19.097-98.959c0 11.498-9.335 20.833-20.834 20.833-11.498 0-20.833-9.335-20.833-20.833v-79.861c0-11.498 9.335-20.834 20.833-20.834 11.499 0 20.834 9.336 20.834 20.834v79.861Zm0-159.722c0 11.498-9.335 20.833-20.834 20.833-11.498 0-20.833-9.335-20.833-20.833v-79.861c0-11.498 9.335-20.834 20.833-20.834 11.499 0 20.834 9.336 20.834 20.834v79.861Zm0-159.722c0 11.498-9.335 20.833-20.834 20.833-11.498 0-20.833-9.335-20.833-20.833V27.083c0-11.506 9.327-20.833 20.833-20.833h39.931c11.498 0 20.833 9.335 20.833 20.833 0 11.499-9.335 20.834-20.833 20.834H47.917v19.097Zm98.958-19.097c-11.498 0-20.833-9.335-20.833-20.834 0-11.498 9.335-20.833 20.833-20.833h79.862c11.498 0 20.833 9.335 20.833 20.833 0 11.499-9.335 20.834-20.833 20.834h-79.862Zm159.722 0c-11.498 0-20.833-9.335-20.833-20.834 0-11.498 9.335-20.833 20.833-20.833h79.862c11.498 0 20.833 9.335 20.833 20.833 0 11.499-9.335 20.834-20.833 20.834h-79.862Z"
    style="fill:#d62246"/>
</svg>
