<?xml version="1.0" encoding="UTF-8" standalone="no"?>
<!DOCTYPE svg PUBLIC "-//W3C//DTD SVG 1.1//EN" "http://www.w3.org/Graphics/SVG/1.1/DTD/svg11.dtd">
<svg width="100%" height="100%" viewBox="0 0 128 128" version="1.1" xmlns="http://www.w3.org/2000/svg"
  xml:space="preserve"
  style="fill-rule:evenodd;clip-rule:evenodd;stroke-linecap:round;stroke-linejoin:round;stroke-miterlimit:1;">
    <g transform="matrix(1,0,0,1,-1800,-200)">
        <g id="color-dark" transform="matrix(0.248227,0,0,0.312796,1800.45,199.973)">
            <rect x="-1.829" y="0.088" width="515.658" height="409.212" style="fill:none;"/>
          <g transform="matrix(5.18814,0,0,4.11717,-9414.7,-71.5353)">
                <path d="M1908.65,67.092L1864,67.092L1895.57,35.521C1903.94,43.894 1908.65,55.25 1908.65,67.092Z" style="fill:rgb(247,197,72);"/>
            </g>
          <g transform="matrix(5.18814,0,0,4.11717,-9414.7,-71.5353)">
                <path d="M1895.57,35.521L1864,67.092L1864,22.443C1875.84,22.443 1887.2,27.147 1895.57,35.521Z" style="fill:rgb(238,235,211);"/>
            </g>
          <g transform="matrix(5.18814,0,0,4.11717,-9414.7,-71.5353)">
                <path d="M1864,22.443L1864,67.092L1832.43,35.521C1840.8,27.147 1852.16,22.443 1864,22.443Z" style="fill:rgb(81,150,58);"/>
            </g>
          <g transform="matrix(5.18814,0,0,4.11717,-9414.7,-71.5353)">
                <path d="M1832.43,35.521L1864,67.092L1819.35,67.092C1819.35,55.25 1824.06,43.894 1832.43,35.521Z" style="fill:rgb(0,165,188);"/>
            </g>
          <g transform="matrix(5.18814,0,0,4.11717,-9414.7,-71.5353)">
                <path d="M1819.35,67.092L1864,67.092L1832.43,98.663C1824.06,90.29 1819.35,78.934 1819.35,67.092Z" style="fill:rgb(14,124,123);"/>
            </g>
          <g transform="matrix(5.18814,0,0,4.11717,-9414.7,-71.5353)">
                <path d="M1832.43,98.663L1864,67.092L1864,111.741C1852.16,111.741 1840.8,107.037 1832.43,98.663Z" style="fill:rgb(75,29,63);"/>
            </g>
          <g transform="matrix(5.18814,0,0,4.11717,-9414.7,-71.5353)">
                <path d="M1864,111.741L1864,67.092L1895.57,98.663C1887.2,107.037 1875.84,111.741 1864,111.741Z" style="fill:rgb(214,34,70);"/>
            </g>
          <g transform="matrix(5.18814,0,0,4.11717,-9414.7,-71.5353)">
                <path d="M1895.57,98.663L1864,67.092L1908.65,67.092C1908.65,78.934 1903.94,90.29 1895.57,98.663Z" style="fill:rgb(226,93,14);"/>
            </g>
          <g transform="matrix(5.18814,0,0,4.11717,-9414.7,-71.5353)">
                <circle cx="1864" cy="67.092" r="44.649"
                  style="fill:none;stroke:rgb(0,165,188);stroke-width:3.88px;stroke-dasharray:0,0.19,0,0,0,0;"/>
            </g>
        </g>
    </g>
</svg>
