<?xml version="1.0" encoding="UTF-8" standalone="no"?><!DOCTYPE svg PUBLIC "-//W3C//DTD SVG 1.1//EN"
  "http://www.w3.org/Graphics/SVG/1.1/DTD/svg11.dtd">
<svg width="100%" height="100%" viewBox="0 0 534 534" version="1.1" xmlns="http://www.w3.org/2000/svg"
  xml:space="preserve"
  style="fill-rule:evenodd;clip-rule:evenodd;stroke-linecap:round;stroke-linejoin:round;stroke-miterlimit:1;"><rect id="cut" x="0" y="-0" width="533.333" height="533.333" style="fill:none;"/>
  <path
    d="M37.5,277.184l0,-21.034c5.805,-0 10.517,4.712 10.517,10.517c0,5.804 -4.712,10.517 -10.517,10.517Zm0,-0c-5.805,-0 -10.517,-4.713 -10.517,-10.517c-0,-5.805 4.712,-10.517 10.517,10.517Zm458.333,-0c-5.804,-0 -10.517,-4.713 -10.517,-10.517c0,-5.805 4.713,-10.517 10.517,-10.517l0,21.034Zm-436.508,-0c-5.804,-0 -10.517,-4.713 -10.517,-10.517c0,-5.805 4.713,-10.517 10.517,-10.517c5.805,-0 10.518,4.712 10.518,10.517c-0,5.804 -4.713,10.517 -10.518,10.517Zm21.826,-0c-5.805,-0 -10.517,-4.713 -10.517,-10.517c-0,-5.805 4.712,-10.517 10.517,-10.517c5.804,-0 10.517,4.712 10.517,10.517c0,5.804 -4.713,10.517 -10.517,10.517Zm21.825,-0c-5.804,-0 -10.517,-4.713 -10.517,-10.517c0,-5.805 4.713,-10.517 10.517,-10.517c5.805,-0 10.518,4.712 10.518,10.517c-0,5.804 -4.713,10.517 -10.518,10.517Zm21.825,-0c-5.804,-0 -10.517,-4.713 -10.517,-10.517c-0,-5.805 4.713,-10.517 10.517,-10.517c5.805,-0 10.517,4.712 10.517,10.517c0,5.804 -4.712,10.517 -10.517,10.517Zm21.826,-0c-5.805,-0 -10.517,-4.713 -10.517,-10.517c-0,-5.805 4.712,-10.517 10.517,-10.517c5.804,-0 10.517,4.712 10.517,10.517c0,5.804 -4.713,10.517 -10.517,10.517Zm21.825,-0c-5.804,-0 -10.517,-4.713 -10.517,-10.517c0,-5.805 4.713,-10.517 10.517,-10.517c5.805,-0 10.518,4.712 10.518,10.517c-0,5.804 -4.713,10.517 -10.518,10.517Zm21.826,-0c-5.804,-0 -10.517,-4.713 -10.517,-10.517c0,-5.805 4.713,-10.517 10.517,-10.517c5.805,-0 10.518,4.712 10.518,10.517c-0,5.804 -4.713,10.517 -10.518,10.517Zm21.826,-0c-5.805,-0 -10.518,-4.713 -10.518,-10.517c0,-5.805 4.713,-10.517 10.518,-10.517c5.804,-0 10.517,4.712 10.517,10.517c-0,5.804 -4.713,10.517 -10.517,10.517Zm21.824,-0c-5.804,-0 -10.517,-4.713 -10.517,-10.517c0,-5.805 4.713,-10.517 10.517,-10.517c5.805,-0 10.518,4.712 10.518,10.517c-0,5.804 -4.713,10.517 -10.518,10.517Zm21.827,-0c-5.805,-0 -10.518,-4.713 -10.518,-10.517c0,-5.805 4.713,-10.517 10.518,-10.517c5.804,-0 10.517,4.712 10.517,10.517c-0,5.804 -4.713,10.517 -10.517,10.517Zm21.824,-0c-5.804,-0 -10.517,-4.713 -10.517,-10.517c-0,-5.805 4.713,-10.517 10.517,-10.517c5.805,-0 10.517,4.712 10.517,10.517c0,5.804 -4.712,10.517 -10.517,10.517Zm21.826,-0c-5.804,-0 -10.517,-4.713 -10.517,-10.517c-0,-5.805 4.713,-10.517 10.517,-10.517c5.805,-0 10.517,4.712 10.517,10.517c0,5.804 -4.712,10.517 -10.517,10.517Zm21.825,-0c-5.805,-0 -10.517,-4.713 -10.517,-10.517c-0,-5.805 4.712,-10.517 10.517,-10.517c5.805,-0 10.517,4.712 10.517,10.517c0,5.804 -4.712,10.517 -10.517,10.517Zm21.825,-0c-5.804,-0 -10.517,-4.713 -10.517,-10.517c0,-5.805 4.713,-10.517 10.517,-10.517c5.805,-0 10.517,4.712 10.517,10.517c0,5.804 -4.712,10.517 -10.517,10.517Zm21.826,-0c-5.804,-0 -10.517,-4.713 -10.517,-10.517c-0,-5.805 4.713,-10.517 10.517,-10.517c5.805,-0 10.517,4.712 10.517,10.517c0,5.804 -4.712,10.517 -10.517,10.517Zm21.826,-0c-5.805,-0 -10.517,-4.713 -10.517,-10.517c-0,-5.805 4.712,-10.517 10.517,-10.517c5.804,-0 10.517,4.712 10.517,10.517c-0,5.804 -4.713,10.517 -10.517,10.517Zm21.824,-0c-5.804,-0 -10.517,-4.713 -10.517,-10.517c0,-5.805 4.713,-10.517 10.517,-10.517c5.805,-0 10.517,4.712 10.517,10.517c0,5.804 -4.712,10.517 -10.517,10.517Zm21.826,-0c-5.804,-0 -10.517,-4.713 -10.517,-10.517c-0,-5.805 4.713,-10.517 10.517,-10.517c5.805,-0 10.517,4.712 10.517,10.517c0,5.804 -4.712,10.517 -10.517,10.517Zm21.826,-0c-5.805,-0 -10.517,-4.713 -10.517,-10.517c-0,-5.805 4.712,-10.517 10.517,-10.517c5.804,-0 10.517,4.712 10.517,10.517c0,5.804 -4.713,10.517 -10.517,10.517Zm21.825,-0c-5.804,-0 -10.517,-4.713 -10.517,-10.517c-0,-5.805 4.713,-10.517 10.517,-10.517c5.805,-0 10.517,4.712 10.517,10.517c0,5.804 -4.712,10.517 -10.517,10.517Z"
    style="fill:#d62246;"/>
  <path d="M465.362,197.957l-353.936,99.96" style="fill:none;stroke:#1e4847;stroke-width:20.83px;"/>
  <path d="M465.362,335.376l-353.936,-99.959" style="fill:none;stroke:#1e4847;stroke-width:20.83px;"/>
  <path
    d="M111.426,152.083c22.997,0 41.667,18.671 41.667,41.667c0,22.996 -18.67,41.667 -41.667,41.667c-22.996,-0 -41.666,-18.671 -41.666,-41.667c-0,-22.996 18.67,-41.667 41.666,-41.667Zm0,0c22.997,0 41.667,18.671 41.667,41.667c0,22.996 -18.67,41.667 -41.667,41.667c-22.996,-0 -41.666,-18.671 -41.666,-41.667c-0,-22.996 18.67,-41.667 41.666,-41.667Z"
    style="fill:#0e7c7b;stroke:#1e4847;stroke-width:20.83px;"/>
  <path
    d="M111.426,297.917c22.997,-0 41.667,18.67 41.667,41.666c0,22.997 -18.67,41.667 -41.667,41.667c-22.996,0 -41.666,-18.67 -41.666,-41.667c-0,-22.996 18.67,-41.666 41.666,-41.666Zm0,-0c22.997,-0 41.667,18.67 41.667,41.666c0,22.997 -18.67,41.667 -41.667,41.667c-22.996,0 -41.666,-18.67 -41.666,-41.667c-0,-22.996 18.67,-41.666 41.666,-41.666Z"
    style="fill:#0e7c7b;stroke:#1e4847;stroke-width:20.83px;"/>
  <path d="M465.362,197.836l-243.244,68.831c-5.7,-20.145 44.131,-51.884 111.3,-70.891c67.17,-19.007 126.243,-18.085 131.944,2.06Z"
    style="fill:#0e7c7b;stroke:#1e4847;stroke-width:20.83px;"/>
  <path d="M465.362,335.498l-243.244,-68.831c-5.7,20.144 44.131,51.883 111.3,70.891c67.17,19.007 126.243,18.084 131.944,-2.06Z"
    style="fill:#0e7c7b;stroke:#1e4847;stroke-width:20.83px;"/></svg>
