<?xml version="1.0" encoding="UTF-8" standalone="no"?>
<!DOCTYPE svg PUBLIC "-//W3C//DTD SVG 1.1//EN" "http://www.w3.org/Graphics/SVG/1.1/DTD/svg11.dtd">
<svg width="100%" height="100%" viewBox="0 0 128 128" version="1.1" xmlns="http://www.w3.org/2000/svg"
  xml:space="preserve"
  style="fill-rule:evenodd;clip-rule:evenodd;stroke-linecap:round;stroke-linejoin:round;stroke-miterlimit:1;">
    <g transform="matrix(1,0,0,1,-2600,-200)">
        <g id="cut-dark" transform="matrix(0.248227,0,0,0.312796,2600.45,199.973)">
            <rect x="-1.829" y="0.088" width="515.658" height="409.212" style="fill:none;"/>
          <g transform="matrix(3.85378,0,0,3.05826,-10016.7,8.96556)">
                <path
                  d="M2608.12,66.639L2608.12,61.361C2609.58,61.361 2610.76,62.544 2610.76,64C2610.76,65.456 2609.58,66.639 2608.12,66.639ZM2608.12,66.639C2606.67,66.639 2605.49,65.456 2605.49,64C2605.49,62.544 2606.67,61.361 2608.12,66.639ZM2723.11,66.639C2721.66,66.639 2720.47,65.456 2720.47,64C2720.47,62.544 2721.66,61.361 2723.11,61.361L2723.11,66.639ZM2613.6,66.639C2612.14,66.639 2610.96,65.456 2610.96,64C2610.96,62.544 2612.14,61.361 2613.6,61.361C2615.05,61.361 2616.24,62.544 2616.24,64C2616.24,65.456 2615.05,66.639 2613.6,66.639ZM2619.08,66.639C2617.62,66.639 2616.44,65.456 2616.44,64C2616.44,62.544 2617.62,61.361 2619.08,61.361C2620.53,61.361 2621.71,62.544 2621.71,64C2621.71,65.456 2620.53,66.639 2619.08,66.639ZM2624.55,66.639C2623.09,66.639 2621.91,65.456 2621.91,64C2621.91,62.544 2623.09,61.361 2624.55,61.361C2626.01,61.361 2627.19,62.544 2627.19,64C2627.19,65.456 2626.01,66.639 2624.55,66.639ZM2630.03,66.639C2628.57,66.639 2627.39,65.456 2627.39,64C2627.39,62.544 2628.57,61.361 2630.03,61.361C2631.48,61.361 2632.66,62.544 2632.66,64C2632.66,65.456 2631.48,66.639 2630.03,66.639ZM2635.5,66.639C2634.05,66.639 2632.86,65.456 2632.86,64C2632.86,62.544 2634.05,61.361 2635.5,61.361C2636.96,61.361 2638.14,62.544 2638.14,64C2638.14,65.456 2636.96,66.639 2635.5,66.639ZM2640.98,66.639C2639.52,66.639 2638.34,65.456 2638.34,64C2638.34,62.544 2639.52,61.361 2640.98,61.361C2642.43,61.361 2643.62,62.544 2643.62,64C2643.62,65.456 2642.43,66.639 2640.98,66.639ZM2646.45,66.639C2645,66.639 2643.82,65.456 2643.82,64C2643.82,62.544 2645,61.361 2646.45,61.361C2647.91,61.361 2649.09,62.544 2649.09,64C2649.09,65.456 2647.91,66.639 2646.45,66.639ZM2651.93,66.639C2650.47,66.639 2649.29,65.456 2649.29,64C2649.29,62.544 2650.47,61.361 2651.93,61.361C2653.39,61.361 2654.57,62.544 2654.57,64C2654.57,65.456 2653.39,66.639 2651.93,66.639ZM2657.4,66.639C2655.95,66.639 2654.77,65.456 2654.77,64C2654.77,62.544 2655.95,61.361 2657.4,61.361C2658.86,61.361 2660.04,62.544 2660.04,64C2660.04,65.456 2658.86,66.639 2657.4,66.639ZM2662.88,66.639C2661.42,66.639 2660.24,65.456 2660.24,64C2660.24,62.544 2661.42,61.361 2662.88,61.361C2664.34,61.361 2665.52,62.544 2665.52,64C2665.52,65.456 2664.34,66.639 2662.88,66.639ZM2668.36,66.639C2666.9,66.639 2665.72,65.456 2665.72,64C2665.72,62.544 2666.9,61.361 2668.36,61.361C2669.81,61.361 2670.99,62.544 2670.99,64C2670.99,65.456 2669.81,66.639 2668.36,66.639ZM2673.83,66.639C2672.38,66.639 2671.19,65.456 2671.19,64C2671.19,62.544 2672.38,61.361 2673.83,61.361C2675.29,61.361 2676.47,62.544 2676.47,64C2676.47,65.456 2675.29,66.639 2673.83,66.639ZM2679.31,66.639C2677.85,66.639 2676.67,65.456 2676.67,64C2676.67,62.544 2677.85,61.361 2679.31,61.361C2680.76,61.361 2681.95,62.544 2681.95,64C2681.95,65.456 2680.76,66.639 2679.31,66.639ZM2684.78,66.639C2683.33,66.639 2682.14,65.456 2682.14,64C2682.14,62.544 2683.33,61.361 2684.78,61.361C2686.24,61.361 2687.42,62.544 2687.42,64C2687.42,65.456 2686.24,66.639 2684.78,66.639ZM2690.26,66.639C2688.8,66.639 2687.62,65.456 2687.62,64C2687.62,62.544 2688.8,61.361 2690.26,61.361C2691.72,61.361 2692.9,62.544 2692.9,64C2692.9,65.456 2691.72,66.639 2690.26,66.639ZM2695.73,66.639C2694.28,66.639 2693.1,65.456 2693.1,64C2693.1,62.544 2694.28,61.361 2695.73,61.361C2697.19,61.361 2698.37,62.544 2698.37,64C2698.37,65.456 2697.19,66.639 2695.73,66.639ZM2701.21,66.639C2699.75,66.639 2698.57,65.456 2698.57,64C2698.57,62.544 2699.75,61.361 2701.21,61.361C2702.67,61.361 2703.85,62.544 2703.85,64C2703.85,65.456 2702.67,66.639 2701.21,66.639ZM2706.69,66.639C2705.23,66.639 2704.05,65.456 2704.05,64C2704.05,62.544 2705.23,61.361 2706.69,61.361C2708.14,61.361 2709.32,62.544 2709.32,64C2709.32,65.456 2708.14,66.639 2706.69,66.639ZM2712.16,66.639C2710.7,66.639 2709.52,65.456 2709.52,64C2709.52,62.544 2710.7,61.361 2712.16,61.361C2713.62,61.361 2714.8,62.544 2714.8,64C2714.8,65.456 2713.62,66.639 2712.16,66.639ZM2717.64,66.639C2716.18,66.639 2715,65.456 2715,64C2715,62.544 2716.18,61.361 2717.64,61.361C2719.09,61.361 2720.28,62.544 2720.28,64C2720.28,65.456 2719.09,66.639 2717.64,66.639Z"
                  style="fill:rgb(247,197,72);"/>
            </g>
          <g transform="matrix(12.2197,0,0,9.69719,-32712.6,-325.799)">
                <path d="M2713.72,49.269L2685.71,57.178" style="fill:none;stroke:rgb(0,165,188);stroke-width:1.65px;"/>
            </g>
          <g transform="matrix(12.2197,0,0,-9.69719,-32712.6,735.187)">
                <path d="M2713.72,49.269L2685.71,57.178" style="fill:none;stroke:rgb(0,165,188);stroke-width:1.65px;"/>
            </g>
          <g transform="matrix(5.23897,0,0,4.15751,-13655.5,-62.2503)">
                <path
                  d="M2626.74,43.061C2630.99,43.061 2634.43,46.507 2634.43,50.751C2634.43,54.995 2630.99,58.441 2626.74,58.441C2622.5,58.441 2619.05,54.995 2619.05,50.751C2619.05,46.507 2622.5,43.061 2626.74,43.061ZM2626.74,43.061C2630.99,43.061 2634.43,46.507 2634.43,50.751C2634.43,54.995 2630.99,58.441 2626.74,58.441C2622.5,58.441 2619.05,54.995 2619.05,50.751C2619.05,46.507 2622.5,43.061 2626.74,43.061Z"
                  style="fill:rgb(14,124,123);stroke:rgb(0,165,188);stroke-width:3.84px;"/>
            </g>
          <g transform="matrix(5.23897,0,0,4.15751,-13655.5,49.6436)">
                <path
                  d="M2626.74,43.061C2630.99,43.061 2634.43,46.507 2634.43,50.751C2634.43,54.995 2630.99,58.441 2626.74,58.441C2622.5,58.441 2619.05,54.995 2619.05,50.751C2619.05,46.507 2622.5,43.061 2626.74,43.061ZM2626.74,43.061C2630.99,43.061 2634.43,46.507 2634.43,50.751C2634.43,54.995 2630.99,58.441 2626.74,58.441C2622.5,58.441 2619.05,54.995 2619.05,50.751C2619.05,46.507 2622.5,43.061 2626.74,43.061Z"
                  style="fill:rgb(14,124,123);stroke:rgb(0,165,188);stroke-width:3.84px;"/>
            </g>
          <g transform="matrix(4.40826,-0.989913,1.0969,3.07618,-11524.2,2740.92)">
                <path d="M2708.43,29.928L2655.08,29.928C2655.08,24.904 2667.02,20.83 2681.75,20.83C2696.48,20.83 2708.43,24.904 2708.43,29.928Z"
                  style="fill:rgb(238,235,211);stroke:rgb(0,165,188);stroke-width:4.67px;"/>
            </g>
          <g transform="matrix(4.40826,0.989913,1.0969,-3.07618,-11524.2,-2331.54)">
                <path d="M2708.43,29.928L2655.08,29.928C2655.08,24.904 2667.02,20.83 2681.75,20.83C2696.48,20.83 2708.43,24.904 2708.43,29.928Z"
                  style="fill:rgb(238,235,211);stroke:rgb(0,165,188);stroke-width:4.67px;"/>
            </g>
        </g>
    </g>
</svg>
