<?xml version="1.0" encoding="UTF-8" standalone="no"?><!DOCTYPE svg PUBLIC "-//W3C//DTD SVG 1.1//EN"
  "http://www.w3.org/Graphics/SVG/1.1/DTD/svg11.dtd">
<svg width="100%" height="100%" viewBox="0 0 534 534" version="1.1" xmlns="http://www.w3.org/2000/svg"
  xml:space="preserve" style="fill-rule:evenodd;clip-rule:evenodd;stroke-linejoin:round;stroke-miterlimit:2;"><rect id="eye-closed-dark" x="0" y="-0" width="533.333" height="533.333" style="fill:none;"/>
  <g><path d="M266.663,369.929c-135.039,0 -202.185,-54.66 -204.974,-56.99l-3.356,-2.793l3.356,-2.794c2.789,-2.33 69.935,-56.99 204.974,-56.99c135.039,0 202.185,54.66 204.975,56.99l3.362,2.794l-3.355,2.793c-2.797,2.33 -69.944,56.99 -204.982,56.99Z" style="fill:#4e8fa6;stroke:#00a5bc;stroke-width:20.83px;"/>
    <g><path d="M67.713,310.056c48.309,39.855 132.632,65.218 198.95,65.218c66.318,0 150.646,-25.363 198.957,-65.218" style="fill:none;stroke:#00a5bc;stroke-width:20.83px;stroke-linecap:round;stroke-miterlimit:1;"/>
      <path d="M102.26,342.665l-0,54.529" style="fill:none;stroke:#00a5bc;stroke-width:20.83px;stroke-linecap:round;stroke-miterlimit:1;"/>
      <path d="M266.663,375.274l0,54.529" style="fill:none;stroke:#00a5bc;stroke-width:20.83px;stroke-linecap:round;stroke-miterlimit:1;"/>
      <path d="M348.865,369.929l0,54.529" style="fill:none;stroke:#00a5bc;stroke-width:20.83px;stroke-linecap:round;stroke-miterlimit:1;"/>
      <path d="M184.462,369.929l-0,54.529" style="fill:none;stroke:#00a5bc;stroke-width:20.83px;stroke-linecap:round;stroke-miterlimit:1;"/>
      <path d="M431.067,342.665l-0,54.529" style="fill:none;stroke:#00a5bc;stroke-width:20.83px;stroke-linecap:round;stroke-miterlimit:1;"/></g></g></svg>
