<svg viewBox="0 0 534 534" xmlns="http://www.w3.org/2000/svg" xml:space="preserve"
  style="fill-rule:evenodd;clip-rule:evenodd;stroke-linejoin:round;stroke-miterlimit:2">
    <path style="fill:none" d="M0 0h533.333v533.333H0z"/>
  <path
    d="M266.663 429.803c-135.039 0-202.185-109.321-204.974-113.98l-3.356-5.587 3.356-5.587c2.789-4.66 69.935-113.981 204.974-113.981s202.185 109.321 204.975 113.981l3.362 5.587-3.355 5.587c-2.797 4.659-69.944 113.98-204.982 113.98Zm0-195.656c-41.957 0-76.088 34.131-76.088 76.089 0 41.957 34.131 76.088 76.088 76.088 41.958 0 76.089-34.131 76.089-76.088 0-41.958-34.131-76.089-76.089-76.089Z"
    style="fill:#eeebd3;fill-rule:nonzero;stroke:#1e4847;stroke-width:20.83px"/>
  <circle cx="266.667" cy="310.236" r="76.088" style="fill:#00a5bc;stroke:#1e4847;stroke-width:20.83px;stroke-linecap:round;stroke-miterlimit:1"/>
  <circle cx="266.667" cy="310.236" r="36.053" style="fill:#1e4847;stroke:#1e4847;stroke-width:20.83px;stroke-linecap:round;stroke-miterlimit:1"/>
  <path
    d="M67.713 223.278c48.309-39.856 132.632-65.219 198.95-65.219 66.318 0 150.646 25.363 198.957 65.219M102.26 190.668V136.14M266.663 158.059V103.53M348.865 163.404v-54.529M184.462 163.404v-54.529M431.067 190.668V136.14"
    style="fill:none;stroke:#1e4847;stroke-width:20.83px;stroke-linecap:round;stroke-miterlimit:1"/>
</svg>
