<svg viewBox="0 0 534 534" xmlns="http://www.w3.org/2000/svg" xml:space="preserve"
  style="fill-rule:evenodd;clip-rule:evenodd;stroke-linejoin:round;stroke-miterlimit:2">
    <path style="fill:none" d="M0 0h533.333v533.333H0z"/>
  <path
    d="M266.663 369.929c-135.039 0-202.185-54.66-204.974-56.99l-3.356-2.793 3.356-2.794c2.789-2.33 69.935-56.99 204.974-56.99s202.185 54.66 204.975 56.99l3.362 2.794-3.355 2.793c-2.797 2.33-69.944 56.99-204.982 56.99Z"
    style="fill:#4e8fa6;stroke:#1e4847;stroke-width:20.83px"/>
  <path
    d="M67.713 310.056c48.309 39.855 132.632 65.218 198.95 65.218 66.318 0 150.646-25.363 198.957-65.218M102.26 342.665v54.529M266.663 375.274v54.529M348.865 369.929v54.529M184.462 369.929v54.529M431.067 342.665v54.529"
    style="fill:none;stroke:#1e4847;stroke-width:20.83px;stroke-linecap:round;stroke-miterlimit:1"/>
</svg>
