<?xml version="1.0" encoding="UTF-8" standalone="no"?>
<!DOCTYPE svg PUBLIC "-//W3C//DTD SVG 1.1//EN" "http://www.w3.org/Graphics/SVG/1.1/DTD/svg11.dtd">
<svg width="100%" height="100%" viewBox="0 0 128 128" version="1.1" xmlns="http://www.w3.org/2000/svg"
  xml:space="preserve"
  style="fill-rule:evenodd;clip-rule:evenodd;stroke-linecap:round;stroke-linejoin:round;stroke-miterlimit:1;">
    <g transform="matrix(1,0,0,1,-4000,-200)">
        <g id="lift-dark" transform="matrix(0.248227,0,0,0.312796,4000.45,199.973)">
            <rect x="-1.829" y="0.088" width="515.658" height="409.212" style="fill:none;"/>
          <clipPath id="_clip1">
                <rect x="-1.829" y="0.088" width="515.658" height="409.212"/>
            </clipPath>
          <g clip-path="url(#_clip1)">
                <g transform="matrix(5.2932,0,0,3.23402,-17021,111.539)">
                    <path d="M3264,13.291L3302.05,28.805L3264,44.318L3225.95,28.805L3264,13.291Z"
                      style="fill:rgb(238,235,211);stroke:rgb(0,165,188);stroke-width:4.31px;"/>
                </g>
            <g transform="matrix(8.25152,0,0,5.21779,-11760.4,6.45978)">
                    <g transform="matrix(0.488223,-0,-0,0.612705,1425.02,-1.22118)">
                        <path d="M46,36.939L64,18.939L82,36.939"
                          style="fill:none;stroke:rgb(247,197,72);stroke-width:8px;stroke-linejoin:miter;stroke-miterlimit:10;"/>
                      <path d="M64,63.282C64,63.282 64,32.026 64,18.939" style="fill:none;stroke:rgb(247,197,72);stroke-width:8px;"/>
                    </g>
                </g>
            </g>
        </g>
    </g>
</svg>
