<?xml version="1.0" encoding="UTF-8" standalone="no"?>
<!DOCTYPE svg PUBLIC "-//W3C//DTD SVG 1.1//EN" "http://www.w3.org/Graphics/SVG/1.1/DTD/svg11.dtd">
<svg width="100%" height="100%" viewBox="0 0 128 128" version="1.1" xmlns="http://www.w3.org/2000/svg"
  xml:space="preserve"
  style="fill-rule:evenodd;clip-rule:evenodd;stroke-linecap:round;stroke-linejoin:round;stroke-miterlimit:1;">
    <g transform="matrix(1,0,0,1,-5200,-200)">
        <g id="pencil-dark" transform="matrix(0.248227,0,0,0.312796,5200.45,199.973)">
            <rect x="-1.829" y="0.088" width="515.658" height="409.212" style="fill:none;"/>
          <g transform="matrix(-0.788853,-0.626012,-0.823491,0.6535,1156.18,1072.89)">
                <path
                  d="M1303.45,31.621C1303.45,31.621 1275.96,107.333 1264,107.333C1252.04,107.333 1223.59,31.175 1223.59,31.175C1223.59,19.72 1230.38,20.667 1242.33,20.667L1285.67,20.667C1297.62,20.667 1303.45,20.165 1303.45,31.621Z"
                  style="fill:rgb(75,29,63);stroke:rgb(0,165,188);stroke-width:17.66px;stroke-dasharray:0,0.88,0,0,0,0;"/>
            </g>
          <g transform="matrix(-0.788853,-0.626012,-0.641566,0.509129,1435.92,850.903)">
                <path
                  d="M1307.33,42.333L1307.33,85.667C1307.33,97.625 1299.44,107.333 1289.71,107.333L1238.29,107.333C1228.56,107.333 1220.67,97.625 1220.67,85.667L1220.67,42.333C1220.67,30.375 1228.56,20.667 1238.29,20.667L1289.71,20.667C1299.44,20.667 1307.33,30.375 1307.33,42.333Z"
                  style="fill:rgb(214,34,70);stroke:rgb(75,29,63);stroke-width:19.81px;stroke-dasharray:0,0.99,0,0,0,0;"/>
            </g>
          <g transform="matrix(-0.788853,-0.626012,-3.02394,2.39971,1446.64,842.391)">
                <path
                  d="M1307.33,26.319L1307.33,101.681C1307.33,101.681 1305.04,104.675 1302.83,104.759C1298.02,104.941 1290.62,101.681 1285.67,101.681L1242.33,101.681C1236.81,101.681 1228.21,105.748 1223.59,104.543C1222.18,104.173 1220.67,101.681 1220.67,101.681L1220.67,26.319C1220.67,23.199 1230.38,20.667 1242.33,20.667L1285.67,20.667C1297.62,20.667 1307.33,23.199 1307.33,26.319Z"
                  style="fill:rgb(238,235,211);stroke:rgb(0,165,188);stroke-width:6.45px;stroke-dasharray:0,0.32,0,0,0,0;"/>
            </g>
        </g>
    </g>
</svg>
