<?xml version="1.0" encoding="UTF-8" standalone="no"?>
<!DOCTYPE svg PUBLIC "-//W3C//DTD SVG 1.1//EN" "http://www.w3.org/Graphics/SVG/1.1/DTD/svg11.dtd">
<svg width="100%" height="100%" viewBox="0 0 128 128" version="1.1" xmlns="http://www.w3.org/2000/svg"
  xml:space="preserve"
  style="fill-rule:evenodd;clip-rule:evenodd;stroke-linecap:round;stroke-linejoin:round;stroke-miterlimit:1;">
    <g transform="matrix(1,0,0,1,-6600,-200)">
        <g id="sound-dark" transform="matrix(0.248227,0,0,0.312796,6600.45,199.973)">
            <rect x="-1.829" y="0.088" width="515.658" height="409.212" style="fill:none;"/>
          <g transform="matrix(-0.371869,0,0,0.885315,500.442,148.034)">
                <path
                  d="M1307.33,27.889L1307.33,100.111C1307.33,104.097 1297.62,107.333 1285.67,107.333L1242.33,107.333C1230.38,107.333 1220.67,104.097 1220.67,100.111L1220.67,27.889C1220.67,23.903 1230.38,20.667 1242.33,20.667L1285.67,20.667C1297.62,20.667 1307.33,23.903 1307.33,27.889Z"
                  style="fill:rgb(238,235,211);stroke:rgb(0,165,188);stroke-width:24.22px;stroke-dasharray:0,1.21,0,0,0,0;"/>
            </g>
          <g transform="matrix(-0.371869,0,0,0.59021,564.899,166.921)">
                <path
                  d="M1307.33,31.5L1307.33,96.5C1307.33,102.479 1297.62,107.333 1285.67,107.333L1242.33,107.333C1230.38,107.333 1220.67,102.479 1220.67,96.5L1220.67,31.5C1220.67,25.521 1230.38,20.667 1242.33,20.667L1285.67,20.667C1297.62,20.667 1307.33,25.521 1307.33,31.5Z"
                  style="fill:rgb(238,235,211);stroke:rgb(0,165,188);stroke-width:34.26px;stroke-dasharray:0,1.71,0,0,0,0;"/>
            </g>
          <g transform="matrix(-0.371869,0,0,0.59021,951.642,166.921)">
                <path
                  d="M1307.33,31.5L1307.33,96.5C1307.33,102.479 1297.62,107.333 1285.67,107.333L1242.33,107.333C1230.38,107.333 1220.67,102.479 1220.67,96.5L1220.67,31.5C1220.67,25.521 1230.38,20.667 1242.33,20.667L1285.67,20.667C1297.62,20.667 1307.33,25.521 1307.33,31.5Z"
                  style="fill:rgb(238,235,211);stroke:rgb(0,165,188);stroke-width:34.26px;stroke-dasharray:0,1.71,0,0,0,0;"/>
            </g>
          <g transform="matrix(-0.371869,0,0,1.18042,629.356,129.147)">
                <path
                  d="M1307.33,26.083L1307.33,101.917C1307.33,104.906 1297.62,107.333 1285.67,107.333L1242.33,107.333C1230.38,107.333 1220.67,104.906 1220.67,101.917L1220.67,26.083C1220.67,23.094 1230.38,20.667 1242.33,20.667L1285.67,20.667C1297.62,20.667 1307.33,23.094 1307.33,26.083Z"
                  style="fill:rgb(238,235,211);stroke:rgb(0,165,188);stroke-width:18.58px;stroke-dasharray:0,0.93,0,0,0,0;"/>
            </g>
          <g transform="matrix(-0.371869,0,0,1.18042,887.185,129.147)">
                <path
                  d="M1307.33,26.083L1307.33,101.917C1307.33,104.906 1297.62,107.333 1285.67,107.333L1242.33,107.333C1230.38,107.333 1220.67,104.906 1220.67,101.917L1220.67,26.083C1220.67,23.094 1230.38,20.667 1242.33,20.667L1285.67,20.667C1297.62,20.667 1307.33,23.094 1307.33,26.083Z"
                  style="fill:rgb(238,235,211);stroke:rgb(0,165,188);stroke-width:18.58px;stroke-dasharray:0,0.93,0,0,0,0;"/>
            </g>
          <g transform="matrix(-0.371869,0,0,2.36084,693.813,53.6003)">
                <path
                  d="M1307.33,23.375L1307.33,104.625C1307.33,106.12 1297.62,107.333 1285.67,107.333L1242.33,107.333C1230.38,107.333 1220.67,106.12 1220.67,104.625L1220.67,23.375C1220.67,21.88 1230.38,20.667 1242.33,20.667L1285.67,20.667C1297.62,20.667 1307.33,21.88 1307.33,23.375Z"
                  style="fill:rgb(238,235,211);stroke:rgb(0,165,188);stroke-width:9.5px;stroke-dasharray:0,0.48,0,0,0,0;"/>
            </g>
          <g transform="matrix(-0.371869,0,0,1.77063,822.728,91.3737)">
                <path
                  d="M1307.33,24.278L1307.33,103.722C1307.33,105.715 1297.62,107.333 1285.67,107.333L1242.33,107.333C1230.38,107.333 1220.67,105.715 1220.67,103.722L1220.67,24.278C1220.67,22.285 1230.38,20.667 1242.33,20.667L1285.67,20.667C1297.62,20.667 1307.33,22.285 1307.33,24.278Z"
                  style="fill:rgb(238,235,211);stroke:rgb(0,165,188);stroke-width:12.59px;stroke-dasharray:0,0.63,0,0,0,0;"/>
            </g>
          <g transform="matrix(-0.371869,0,0,2.65594,758.271,34.7136)">
                <path
                  d="M1307.33,23.074L1307.33,104.926C1307.33,106.255 1297.62,107.333 1285.67,107.333L1242.33,107.333C1230.38,107.333 1220.67,106.255 1220.67,104.926L1220.67,23.074C1220.67,21.745 1230.38,20.667 1242.33,20.667L1285.67,20.667C1297.62,20.667 1307.33,21.745 1307.33,23.074Z"
                  style="fill:rgb(238,235,211);stroke:rgb(0,165,188);stroke-width:8.46px;stroke-dasharray:0,0.42,0,0,0,0;"/>
            </g>
        </g>
    </g>
</svg>
