<?xml version="1.0" encoding="UTF-8" standalone="no"?>
<!DOCTYPE svg PUBLIC "-//W3C//DTD SVG 1.1//EN" "http://www.w3.org/Graphics/SVG/1.1/DTD/svg11.dtd">
<svg width="100%" height="100%" viewBox="0 0 128 128" version="1.1" xmlns="http://www.w3.org/2000/svg"
  xml:space="preserve"
  style="fill-rule:evenodd;clip-rule:evenodd;stroke-linecap:round;stroke-linejoin:round;stroke-miterlimit:1;">
    <g transform="matrix(1,0,0,1,-6800,-200)">
        <g id="spawnpoint-dark" transform="matrix(0.248227,0,0,0.312796,6800.45,199.973)">
            <rect x="-1.829" y="0.088" width="515.658" height="409.212" style="fill:none;"/>
          <g transform="matrix(7.79725,0,0,3.3001,-48586,44.6392)">
                <path
                  d="M6264,33C6281.11,33 6295,46.891 6295,64C6295,81.109 6281.11,95 6264,95C6246.89,95 6233,81.109 6233,64C6233,46.891 6246.89,33 6264,33ZM6264,48.5C6272.56,48.5 6279.5,55.445 6279.5,64C6279.5,72.555 6272.56,79.5 6264,79.5C6255.44,79.5 6248.5,72.555 6248.5,64C6248.5,55.445 6255.44,48.5 6264,48.5Z"
                  style="fill:rgb(238,235,211);stroke:rgb(0,165,188);stroke-width:3.22px;"/>
            </g>
          <g transform="matrix(-3.84741,-3.73909e-16,3.14115e-16,-2.03547,26664.6,340.805)">
                <path
                  d="M6864,41.74C6864,41.74 6889.13,85.717 6889.13,104.565C6889.13,125.37 6877.87,142.26 6864,142.26C6850.13,142.26 6838.87,125.37 6838.87,104.565C6838.87,85.717 6864,41.74 6864,41.74ZM6864,122.335C6868.62,122.335 6872.38,116.705 6872.38,109.77C6872.38,102.835 6868.62,97.205 6864,97.205C6859.38,97.205 6855.62,102.835 6855.62,109.77C6855.62,116.705 6859.38,122.335 6864,122.335Z"
                  style="fill:rgb(247,197,72);stroke:rgb(0,165,188);stroke-width:6.16px;"/>
            </g>
        </g>
    </g>
</svg>
