<?xml version="1.0" encoding="UTF-8" standalone="no"?>
<!DOCTYPE svg PUBLIC "-//W3C//DTD SVG 1.1//EN" "http://www.w3.org/Graphics/SVG/1.1/DTD/svg11.dtd">
<svg width="100%" height="100%" viewBox="0 0 128 128" version="1.1" xmlns="http://www.w3.org/2000/svg"
  xml:space="preserve"
  style="fill-rule:evenodd;clip-rule:evenodd;stroke-linecap:round;stroke-linejoin:round;stroke-miterlimit:1;">
    <g transform="matrix(1,0,0,1,-7000,-200)">
        <g id="spritesheet-dark" transform="matrix(0.248227,0,0,0.312796,7000.45,199.973)">
            <rect x="-1.829" y="0.088" width="515.658" height="409.212" style="fill:none;"/>
          <g transform="matrix(-2.66385,0,0,2.10789,3496.83,-30.6873)">
                <rect x="1220.67" y="20.667" width="86.667" height="86.667" style="fill:rgb(238,235,211);"/>
            <path
              d="M1301.92,18.392C1300.66,18.392 1299.65,19.411 1299.65,20.667C1299.65,21.922 1300.66,22.942 1301.92,22.942L1305.07,22.942L1305.07,26.083C1305.07,27.339 1306.08,28.358 1307.33,28.358C1308.59,28.358 1309.6,27.339 1309.6,26.083L1309.6,20.667C1309.6,19.41 1308.59,18.392 1307.33,18.392L1301.92,18.392ZM1309.6,36.917C1309.6,35.661 1308.59,34.642 1307.33,34.642C1306.08,34.642 1305.07,35.661 1305.07,36.917L1305.07,47.75C1305.07,49.006 1306.08,50.025 1307.33,50.025C1308.59,50.025 1309.6,49.006 1309.6,47.75L1309.6,36.917ZM1309.6,58.583C1309.6,57.328 1308.59,56.308 1307.33,56.308C1306.08,56.308 1305.07,57.328 1305.07,58.583L1305.07,69.417C1305.07,70.672 1306.08,71.692 1307.33,71.692C1308.59,71.692 1309.6,70.672 1309.6,69.417L1309.6,58.583ZM1309.6,80.25C1309.6,78.994 1308.59,77.975 1307.33,77.975C1306.08,77.975 1305.07,78.994 1305.07,80.25L1305.07,91.083C1305.07,92.339 1306.08,93.358 1307.33,93.358C1308.59,93.358 1309.6,92.339 1309.6,91.083L1309.6,80.25ZM1309.6,101.917C1309.6,100.661 1308.59,99.642 1307.33,99.642C1306.08,99.642 1305.07,100.661 1305.07,101.917L1305.07,105.058L1301.92,105.058C1300.66,105.058 1299.65,106.078 1299.65,107.333C1299.65,108.589 1300.66,109.608 1301.92,109.608L1307.33,109.608C1308.59,109.608 1309.6,108.59 1309.6,107.333L1309.6,101.917ZM1291.08,109.608C1292.34,109.608 1293.35,108.589 1293.35,107.333C1293.35,106.078 1292.34,105.058 1291.08,105.058L1280.25,105.058C1279,105.058 1277.98,106.078 1277.98,107.333C1277.98,108.589 1279,109.608 1280.25,109.608L1291.08,109.608ZM1269.42,109.608C1270.67,109.608 1271.68,108.589 1271.68,107.333C1271.68,106.078 1270.67,105.058 1269.42,105.058L1258.58,105.058C1257.33,105.058 1256.32,106.078 1256.32,107.333C1256.32,108.589 1257.33,109.608 1258.58,109.608L1269.42,109.608ZM1247.75,109.608C1249,109.608 1250.02,108.589 1250.02,107.333C1250.02,106.078 1249,105.058 1247.75,105.058L1236.92,105.058C1235.66,105.058 1234.65,106.078 1234.65,107.333C1234.65,108.589 1235.66,109.608 1236.92,109.608L1247.75,109.608ZM1226.08,109.608C1227.34,109.608 1228.35,108.589 1228.35,107.333C1228.35,106.078 1227.34,105.058 1226.08,105.058L1222.93,105.058L1222.93,101.917C1222.93,100.661 1221.92,99.642 1220.67,99.642C1219.41,99.642 1218.4,100.661 1218.4,101.917L1218.4,107.333C1218.4,108.59 1219.41,109.608 1220.67,109.608L1226.08,109.608ZM1218.4,91.083C1218.4,92.339 1219.41,93.358 1220.67,93.358C1221.92,93.358 1222.93,92.339 1222.93,91.083L1222.93,80.25C1222.93,78.994 1221.92,77.975 1220.67,77.975C1219.41,77.975 1218.4,78.994 1218.4,80.25L1218.4,91.083ZM1218.4,69.417C1218.4,70.672 1219.41,71.692 1220.67,71.692C1221.92,71.692 1222.93,70.672 1222.93,69.417L1222.93,58.583C1222.93,57.328 1221.92,56.308 1220.67,56.308C1219.41,56.308 1218.4,57.328 1218.4,58.583L1218.4,69.417ZM1218.4,47.75C1218.4,49.006 1219.41,50.025 1220.67,50.025C1221.92,50.025 1222.93,49.006 1222.93,47.75L1222.93,36.917C1222.93,35.661 1221.92,34.642 1220.67,34.642C1219.41,34.642 1218.4,35.661 1218.4,36.917L1218.4,47.75ZM1218.4,26.083C1218.4,27.339 1219.41,28.358 1220.67,28.358C1221.92,28.358 1222.93,27.339 1222.93,26.083L1222.93,22.942L1226.08,22.942C1227.34,22.942 1228.35,21.922 1228.35,20.667C1228.35,19.411 1227.34,18.392 1226.08,18.392L1220.67,18.392C1219.41,18.392 1218.4,19.41 1218.4,20.667L1218.4,26.083ZM1236.92,18.392C1235.66,18.392 1234.65,19.411 1234.65,20.667C1234.65,21.922 1235.66,22.942 1236.92,22.942L1247.75,22.942C1249,22.942 1250.02,21.922 1250.02,20.667C1250.02,19.411 1249,18.392 1247.75,18.392L1236.92,18.392ZM1258.58,18.392C1257.33,18.392 1256.32,19.411 1256.32,20.667C1256.32,21.922 1257.33,22.942 1258.58,22.942L1269.42,22.942C1270.67,22.942 1271.68,21.922 1271.68,20.667C1271.68,19.411 1270.67,18.392 1269.42,18.392L1258.58,18.392ZM1280.25,18.392C1279,18.392 1277.98,19.411 1277.98,20.667C1277.98,21.922 1279,22.942 1280.25,22.942L1291.08,22.942C1292.34,22.942 1293.35,21.922 1293.35,20.667C1293.35,19.411 1292.34,18.392 1291.08,18.392L1280.25,18.392Z"
              style="fill:rgb(0,165,188);"/>
            </g>
          <g transform="matrix(9.82578,0,0,7.30736,51.4195,16.5295)">
                <path d="M6,2L10,2L10,6L6,6L6,2ZM3,7L13,7L13,16L11,16L11,22L9,22L9,16L7,16L7,22L5,22L5,16L3,16L3,7Z"
                  style="fill:rgb(75,29,63);fill-rule:nonzero;"/>
            </g>
          <g transform="matrix(-2.66385,0,0,2.10789,3749.39,-30.6873)">
                <rect x="1220.67" y="20.667" width="86.667" height="86.667" style="fill:rgb(238,235,211);stroke:rgb(0,165,188);stroke-width:4.54px;"/>
            </g>
          <g transform="matrix(9.7799,0,0,7.30736,264.922,17.6857)">
                <path d="M10,2L14,2L14,6L10,6L10,2ZM3,7L21,7L21,9L15,9L15,22L13,22L13,16L11,16L11,22L9,22L9,9L3,9L3,7Z"
                  style="fill:rgb(75,29,63);fill-rule:nonzero;"/>
            </g>
          <g transform="matrix(-2.66385,0,0,2.10789,3496.83,170.265)">
                <rect x="1220.67" y="20.667" width="86.667" height="86.667" style="fill:rgb(238,235,211);stroke:rgb(0,165,188);stroke-width:4.54px;"/>
            </g>
          <g transform="matrix(9.23468,0,0,7.30736,18.9027,217.482)">
                <path
                  d="M10,2L14,2L14,6L10,6L10,2ZM7,7L17,7L17,9L15,9L15,22L13,22L13,16L11,16L11,22L9,22L9,9L7,9L7,7ZM5,5L5,7L7,7L7,5L5,5ZM5,5L3,5L3,3L5,3L5,5ZM19,5L19,7L17,7L17,5L19,5ZM19,5L19,3L21,3L21,5L19,5Z"
                  style="fill:rgb(75,29,63);fill-rule:nonzero;"/>
            </g>
          <g transform="matrix(-2.66385,0,0,2.10789,3749.39,170.265)">
                <rect x="1220.67" y="20.667" width="86.667" height="86.667" style="fill:rgb(238,235,211);stroke:rgb(0,165,188);stroke-width:4.54px;"/>
            </g>
          <g transform="matrix(9.23468,0,0,7.30736,271.465,217.482)">
                <path
                  d="M10,2L14,2L14,6L10,6L10,2ZM7,7L17,7L17,9L15,9L15,22L13,22L13,16L11,16L11,22L9,22L9,9L7,9L7,7ZM5,11L7,11L7,9L5,9L5,11ZM5,11L5,13L3,13L3,11L5,11ZM19,11L17,11L17,9L19,9L19,11ZM19,11L21,11L21,13L19,13L19,11Z"
                  style="fill:rgb(75,29,63);fill-rule:nonzero;"/>
            </g>
        </g>
    </g>
</svg>
